<?xml version="1.0" encoding="UTF-8"?>
<svg version="1.1" xmlns="http://www.w3.org/2000/svg" width="1024" height="1024">
<path d="M0 0 C337.92 0 675.84 0 1024 0 C1024 337.92 1024 675.84 1024 1024 C686.08 1024 348.16 1024 0 1024 C0 686.08 0 348.16 0 0 Z " fill="#C0BEAC" transform="translate(0,0)"/>
<path d="M0 0 C48.85485819 -1.39660127 102.4008671 10.48932645 141.59619141 41.078125 C142.84731116 41.99599781 144.10145099 42.90976239 145.35791016 43.8203125 C153.26720894 49.58314052 160.65629328 55.62192606 167.72900391 62.38671875 C169.70865756 64.245004 171.66105407 65.98375095 173.75634766 67.6953125 C176.06584944 69.63313381 177.98135026 71.46974834 179.90869141 73.765625 C181.78332923 75.97663109 183.66214979 78.14783813 185.65478516 80.25390625 C192.01686322 87.0015648 197.12031006 94.3551654 202.23632812 102.05517578 C203.50789225 103.9467701 204.81111274 105.81014697 206.13134766 107.66796875 C222.38720928 130.79946015 231.99760311 157.17264954 238.34619141 184.515625 C238.55703369 185.41482666 238.76787598 186.31402832 238.98510742 187.24047852 C239.18160889 188.11373779 239.37811035 188.98699707 239.58056641 189.88671875 C239.83918457 191.02838501 239.83918457 191.02838501 240.10302734 192.19311523 C241.37526723 199.63571855 241.75381037 207.07023662 241.76416016 214.609375 C241.76748856 215.48476929 241.77081696 216.36016357 241.77424622 217.26208496 C241.77927233 219.10408001 241.78165589 220.94608403 241.78149414 222.78808594 C241.78366436 225.54378091 241.80182198 228.29906389 241.82080078 231.0546875 C241.98639133 283.06090519 223.63163201 333.89843464 190.59619141 374.078125 C189.360625 375.61726562 189.360625 375.61726562 188.10009766 377.1875 C177.60534325 390.07846127 165.77669118 401.94370003 152.59619141 412.078125 C151.11119141 413.27115234 151.11119141 413.27115234 149.59619141 414.48828125 C136.6232678 424.84248446 122.59794483 433.03496057 107.59619141 440.078125 C106.98404785 440.37283691 106.3719043 440.66754883 105.74121094 440.97119141 C76.51826357 454.97791785 42.90064407 462.45872679 10.53369141 462.515625 C9.51795044 462.51822327 9.51795044 462.51822327 8.48168945 462.52087402 C-6.81454791 462.50396719 -21.43163234 460.21600625 -36.40380859 457.078125 C-37.65532715 456.82240723 -37.65532715 456.82240723 -38.93212891 456.56152344 C-64.91564346 451.12472408 -91.43311159 439.9720072 -113.40380859 425.078125 C-114.66148544 424.24588871 -115.91930834 423.41387312 -117.17724609 422.58203125 C-128.86787053 414.77562487 -139.66580585 406.25433787 -149.40380859 396.078125 C-151.88017232 393.58132923 -154.37214364 391.10845825 -156.91162109 388.67578125 C-167.63962189 378.28403123 -176.38585551 366.66893764 -184.40380859 354.078125 C-184.7942334 353.47242676 -185.1846582 352.86672852 -185.58691406 352.24267578 C-211.83223414 311.4860815 -223.85660447 267.54702752 -222.40380859 219.078125 C-222.38833984 218.32885742 -222.37287109 217.57958984 -222.35693359 216.80761719 C-222.09705004 205.26987013 -219.94357197 194.29905244 -217.40380859 183.078125 C-217.24509277 182.36624023 -217.08637695 181.65435547 -216.92285156 180.92089844 C-207.27294992 138.20754799 -185.39077579 99.92551127 -154.40380859 69.078125 C-153.45558931 68.09790394 -152.50904603 67.11605951 -151.56396484 66.1328125 C-123.92878558 37.60733039 -87.57151046 18.30864302 -49.40380859 8.078125 C-48.44216797 7.80484375 -47.48052734 7.5315625 -46.48974609 7.25 C-31.46735106 3.18053276 -15.54912564 0.50535448 0 0 Z " fill="#372B2B" transform="translate(502.40380859375,224.921875)"/>
<path d="M0 0 C62.37 0 124.74 0 189 0 C189 28.49959113 189 28.49959113 188.78125 38.98046875 C188.73504343 41.45564055 188.68924435 43.93081997 188.64379883 46.40600586 C188.62008209 47.67314423 188.59636536 48.94028259 188.57192993 50.24581909 C188.1307951 74.41952098 187.86840482 98.59290524 187.82275391 122.7706604 C187.81690022 125.86637625 187.80649081 128.96202155 187.79199219 132.05770874 C187.775372 135.71010964 187.76909647 139.36238686 187.77080345 143.01482391 C187.76957356 144.99063024 187.75889455 146.96642371 187.74787903 148.94219971 C187.61083574 161.36372231 187.61083574 161.36372231 192.875 172.25 C193.679375 173.22453125 193.679375 173.22453125 194.5 174.21875 C194.995 174.8065625 195.49 175.394375 196 176 C196.61875 176.9075 197.2375 177.815 197.875 178.75 C203.18902201 184.37661154 210.14874416 185.9480913 217.625 186.3125 C227.35814497 186.21081043 236.33520197 181.84794635 243.1875 175.0625 C250.38993337 165.96449148 249.4180874 152.76025718 249.25 141.75 C249.23729912 140.1877512 249.22551974 138.62549468 249.21459961 137.06323242 C249.12031602 126.20688269 248.8139224 115.3582057 248.42675781 104.50854492 C248.07636712 94.35641973 247.89237249 84.20373542 247.74609375 74.046875 C247.73573153 73.33527411 247.7253693 72.62367321 247.71469307 71.89050865 C247.60917142 64.61997193 247.50889825 57.3493952 247.41948795 50.07864189 C247.39318049 47.98866382 247.3649909 45.89872034 247.33607483 43.80877686 C247.30055037 41.2218687 247.26838603 38.63491133 247.24021912 36.0479126 C247.1543833 30.02635081 246.92565095 24.10026567 246.21839905 18.11756897 C245.63291489 12.44079016 245.94820402 6.69755795 246 1 C265.16826545 -0.18282554 284.32052615 -0.14852324 303.51603532 -0.1343255 C308.07853645 -0.13176025 312.64103576 -0.13415003 317.20353699 -0.13571167 C324.83580901 -0.13751749 332.46807126 -0.13516505 340.1003418 -0.13037109 C348.92808737 -0.12489038 357.75580999 -0.12672483 366.58355504 -0.1321975 C374.19244579 -0.13672534 381.80132962 -0.13738204 389.41022128 -0.13475883 C393.94327751 -0.13319949 398.4763229 -0.13299378 403.00937843 -0.13629532 C407.25063289 -0.13917059 411.49185733 -0.13720483 415.73310852 -0.13140106 C417.29204954 -0.13007336 418.85099306 -0.13046775 420.40993309 -0.13266373 C422.52790618 -0.13537381 424.64578141 -0.13199641 426.76374817 -0.12698364 C427.95101911 -0.12660662 429.13829004 -0.12622959 430.36153889 -0.12584114 C433 0 433 0 434 1 C435.04831059 18.84565942 433.05203915 36.88485442 428 54 C427.59442871 55.40693115 427.59442871 55.40693115 427.18066406 56.84228516 C426.2788214 59.96119886 425.36177134 63.07516269 424.4375 66.1875 C423.99821167 67.67709229 423.99821167 67.67709229 423.55004883 69.19677734 C422.11631234 73.90641386 420.59098315 77.80082042 418 82 C417.52062954 83.39139456 417.06919059 84.79254076 416.63671875 86.19921875 C414.96943782 91.43043438 412.50086443 96.04130026 409.8125 100.8125 C409.07676758 102.12951904 409.07676758 102.12951904 408.32617188 103.47314453 C393.93562744 128.97638716 374.16178248 153.02457085 351 171 C350.40026367 171.47083008 349.80052734 171.94166016 349.18261719 172.42675781 C340.2092295 179.4492127 331.15989316 185.77504793 321 191 C320.20303711 191.41604492 319.40607422 191.83208984 318.58496094 192.26074219 C292.11918914 205.94178314 261.9596726 217.1302094 231.83984375 217.16796875 C230.89170303 217.17129715 229.94356232 217.17462555 228.96669006 217.17805481 C226.96909058 217.18308959 224.97148278 217.18546421 222.97387695 217.18530273 C219.97006786 217.18747643 216.96663436 217.20563421 213.96289062 217.22460938 C197.75945332 217.27488689 182.84387413 215.86544046 167.125 211.625 C165.99320313 211.33367187 164.86140625 211.04234375 163.6953125 210.7421875 C157.69700636 209.15930116 151.96103057 207.329035 146.23876953 204.93310547 C144.20409219 204.08506438 142.16327317 203.31403733 140.0859375 202.578125 C119.7838698 195.31212182 101.46296073 184.83124217 84.66503906 171.31665039 C83.44632215 170.3529348 82.21145924 169.40954174 80.96777344 168.47827148 C74.89229253 163.89637957 69.48435885 158.83252932 64.125 153.4375 C63.24658447 152.55416992 62.36816895 151.67083984 61.46313477 150.76074219 C54.70987855 143.8856537 48.59172415 136.839031 43 129 C42.55398438 128.38769531 42.10796875 127.77539062 41.6484375 127.14453125 C14.38481872 89.59993891 0 46.45929391 0 0 Z " fill="#B2AC9A" transform="translate(295,454)"/>
<path d="M0 0 C1.00711533 -0.00570007 2.01423065 -0.01140015 3.05186462 -0.01727295 C5.187642 -0.02670502 7.3234338 -0.0332498 9.45922852 -0.03710938 C12.6521338 -0.04668689 15.84435851 -0.07767287 19.03710938 -0.109375 C63.15516914 -0.33772735 105.90110932 13.0912663 141.65234375 39.203125 C142.50578369 39.82550049 142.50578369 39.82550049 143.37646484 40.46044922 C150.0199085 45.35136259 156.33266107 50.53828946 162.3984375 56.13671875 C164.39864435 57.97053058 166.44577613 59.71349867 168.52734375 61.453125 C185.31626932 76.18969695 198.13613454 94.65549717 208.65234375 114.203125 C209.20680176 115.22140381 209.20680176 115.22140381 209.77246094 116.26025391 C222.98840079 140.73714896 232.65234375 169.17695039 232.65234375 197.203125 C216.48234375 197.203125 200.31234375 197.203125 183.65234375 197.203125 C182.99234375 191.923125 182.33234375 186.643125 181.65234375 181.203125 C180.95701605 178.09732796 180.25919997 175.1636115 179.33984375 172.140625 C179.12038086 171.39224365 178.90091797 170.6438623 178.67480469 169.87280273 C178.01437877 167.64516439 177.33431914 165.42424215 176.65234375 163.203125 C176.28238281 161.94757813 175.91242188 160.69203125 175.53125 159.3984375 C168.64922577 137.25213115 157.30803984 118.18122364 141.65234375 101.203125 C141.141875 100.64737793 140.63140625 100.09163086 140.10546875 99.51904297 C119.57084236 77.43524495 93.81166706 63.17904733 65.15234375 54.578125 C62.91959146 53.89734251 60.68782265 53.21343536 58.45640564 52.52828979 C56.98815648 52.07875854 55.51888736 51.63254469 54.04859924 51.18972778 C50.56211705 50.13323585 47.11224775 49.03028268 43.69116211 47.77685547 C35.39122263 44.75289627 28.06167007 43.39391071 19.21484375 43.578125 C17.46506226 43.59697754 17.46506226 43.59697754 15.67993164 43.61621094 C6.20219193 43.87128224 -1.62238953 45.51370481 -10.34765625 49.203125 C-11.21261719 49.54859375 -12.07757813 49.8940625 -12.96875 50.25 C-14.54508617 50.88156983 -16.11684617 51.52469269 -17.68359375 52.1796875 C-21.06415461 53.47837804 -24.50976842 54.52612413 -27.97265625 55.578125 C-52.54090706 63.11953501 -77.58871786 73.74206944 -96.0625 92.0859375 C-98.34765625 94.203125 -98.34765625 94.203125 -101.34765625 95.203125 C-102.03128849 96.52783976 -102.69546826 97.86265006 -103.34765625 99.203125 C-104.61977165 100.51438242 -105.93852824 101.78101307 -107.28515625 103.015625 C-133.11628635 128.47538103 -144.35248659 162.23693741 -149.34765625 197.203125 C-166.17765625 197.203125 -183.00765625 197.203125 -200.34765625 197.203125 C-199.1789043 176.16558992 -199.1789043 176.16558992 -197.78515625 170.078125 C-197.61806152 169.31790039 -197.4509668 168.55767578 -197.27880859 167.77441406 C-194.77306233 157.01457155 -191.07122587 146.59052196 -187.34765625 136.203125 C-186.95707031 135.09662598 -186.95707031 135.09662598 -186.55859375 133.96777344 C-181.86070929 120.80982508 -175.31400466 108.03875451 -166.69799805 97.01220703 C-165.37472954 95.23939567 -164.25857879 93.43389441 -163.16015625 91.515625 C-156.47581665 80.76704188 -147.21979273 71.87673593 -138.34765625 62.953125 C-137.43443604 62.03063965 -136.52121582 61.1081543 -135.58032227 60.15771484 C-129.47793183 54.08312946 -123.1183761 48.52018303 -116.34765625 43.203125 C-115.74614746 42.72633301 -115.14463867 42.24954102 -114.52490234 41.75830078 C-92.49516111 24.60233431 -65.50695826 12.28490644 -38.34765625 6.203125 C-36.39421814 5.74743389 -34.44110666 5.29034093 -32.48828125 4.83203125 C-20.95634533 2.15046925 -20.95634533 2.15046925 -16.34765625 1.203125 C-15.47351074 1.02136719 -14.59936523 0.83960938 -13.69873047 0.65234375 C-9.12550655 0.03929319 -4.60960523 0.02055435 0 0 Z " fill="#FBFBEF" transform="translate(496.34765625,240.796875)"/>
<path d="M0 0 C62.37 0 124.74 0 189 0 C189 28.83826592 189 28.83826592 188.81640625 40.24609375 C188.79658188 41.55063004 188.77675751 42.85516632 188.7563324 44.19923401 C188.71472737 46.92019794 188.67173873 49.64113519 188.62768555 52.36206055 C188.57385749 55.69491429 188.52377541 59.02781123 188.4748531 62.36074013 C188.25378385 77.25382137 187.93234217 92.13986116 187.48022461 107.02758789 C187.43340957 108.59067805 187.38667413 110.15377059 187.34001923 111.71686554 C187.22759132 115.47793833 187.11410657 119.23897778 187 123 C167.95508132 123.34101444 148.91004766 123.63006642 129.86342525 123.85746098 C121.01946727 123.96425602 112.17635415 124.08797456 103.33325195 124.25170898 C95.62454892 124.39439632 87.91615716 124.50515329 80.20646387 124.5777635 C76.12478868 124.61731524 72.04473301 124.67271472 67.96391106 124.76637459 C64.11990262 124.85409436 60.27773176 124.8989895 56.43276596 124.91156769 C55.02449251 124.92363023 53.61625047 124.95112273 52.20862389 124.99547386 C41.61718391 125.31627605 41.61718391 125.31627605 37.66497993 122.09945488 C35.84131812 119.8084383 34.39965197 117.56835083 33 115 C32.50072463 114.17217546 32.00144926 113.34435091 31.48704433 112.49144077 C30.0845758 110.15397982 28.78514151 107.77882615 27.5 105.375 C26.79290894 104.06631958 26.79290894 104.06631958 26.0715332 102.73120117 C8.7821283 70.44482743 0 36.712188 0 0 Z " fill="#F1EEDD" transform="translate(295,454)"/>
<path d="M0 0 C1.34150694 0.00028278 2.68301403 0.00012237 4.02452087 -0.0004425 C7.63120636 -0.00072695 11.23785792 0.0051122 14.84453559 0.01213145 C18.62680876 0.01842425 22.40908288 0.01897345 26.19136047 0.02015686 C33.33794376 0.02325282 40.48451157 0.0314426 47.63108808 0.04150635 C55.7738705 0.05272165 63.91665369 0.05819153 72.05944192 0.06320179 C88.79525221 0.07362684 105.53104698 0.09119236 122.2668457 0.11352539 C122.28666504 1.15694092 122.30648437 2.20035645 122.3269043 3.27539062 C122.40355523 7.18381999 122.49217571 11.09190558 122.58422852 15 C122.62227447 16.68450076 122.65716769 18.36907604 122.6887207 20.05371094 C122.73490636 22.48928283 122.79280564 24.92435231 122.8527832 27.35961914 C122.87011002 28.47112587 122.87011002 28.47112587 122.88778687 29.60508728 C123.07699475 36.46188312 123.58271344 43.93036259 128.1418457 49.36352539 C128.9462207 50.33805664 128.9462207 50.33805664 129.7668457 51.33227539 C130.2618457 51.92008789 130.7568457 52.50790039 131.2668457 53.11352539 C131.8855957 54.02102539 132.5043457 54.92852539 133.1418457 55.86352539 C138.45586772 61.49013693 145.41558986 63.06161669 152.8918457 63.42602539 C162.57339954 63.32487483 171.51675338 58.9884601 178.3918457 52.30102539 C182.848285 46.97675318 183.75364392 39.69013313 185.2668457 33.11352539 C190.2168457 33.11352539 195.1668457 33.11352539 200.2668457 33.11352539 C200.5968457 28.49352539 200.9268457 23.87352539 201.2668457 19.11352539 C201.5968457 19.11352539 201.9268457 19.11352539 202.2668457 19.11352539 C202.2668457 23.73352539 202.2668457 28.35352539 202.2668457 33.11352539 C234.6068457 33.11352539 266.9468457 33.11352539 300.2668457 33.11352539 C300.5968457 31.79352539 300.9268457 30.47352539 301.2668457 29.11352539 C302.0347481 27.56969374 302.85023569 26.04888598 303.7043457 24.55102539 C304.13618164 23.78661133 304.56801758 23.02219727 305.01293945 22.23461914 C306.04215387 20.49361157 307.14498054 18.79632313 308.2668457 17.11352539 C308.9268457 17.11352539 309.5868457 17.11352539 310.2668457 17.11352539 C310.2668457 16.45352539 310.2668457 15.79352539 310.2668457 15.11352539 C308.2868457 14.61852539 308.2868457 14.61852539 306.2668457 14.11352539 C310.5568457 13.78352539 314.8468457 13.45352539 319.2668457 13.11352539 C317.01424815 18.74501927 317.01424815 18.74501927 314.5012207 21.42602539 C313.67219238 22.31668701 313.67219238 22.31668701 312.82641602 23.2253418 C312.22925781 23.84844238 311.63209961 24.47154297 311.0168457 25.11352539 C310.39132812 25.77143066 309.76581055 26.42933594 309.12133789 27.10717773 C297.44818716 39.26890395 285.17657323 49.57515696 271.2668457 59.11352539 C270.20747803 59.85626709 270.20747803 59.85626709 269.12670898 60.61401367 C263.26206671 64.65095388 257.13842282 67.94795025 250.7668457 71.11352539 C249.71021729 71.63897949 248.65358887 72.16443359 247.56494141 72.70581055 C239.66453155 76.56695369 231.7653639 79.8278965 223.37817383 82.45141602 C221.09921931 83.16609278 218.83174204 83.91178699 216.5637207 84.66040039 C200.18008148 90.01605091 184.4471597 94.25975548 167.10668945 94.28149414 C166.15854874 94.28482254 165.21040802 94.28815094 164.23353577 94.2915802 C162.23593628 94.29661498 160.23832848 94.2989896 158.24072266 94.29882812 C155.23691356 94.30100182 152.23348006 94.3191596 149.22973633 94.33813477 C133.02629903 94.38841228 118.11071984 92.97896585 102.3918457 88.73852539 C101.26004883 88.44719727 100.12825195 88.15586914 98.9621582 87.85571289 C92.96385207 86.27282655 87.22787627 84.44256039 81.50561523 82.04663086 C79.47093789 81.19858977 77.43011888 80.42756272 75.3527832 79.69165039 C55.0507155 72.42564721 36.72980644 61.94476756 19.93188477 48.43017578 C18.71316785 47.46646019 17.47830494 46.52306713 16.23461914 45.59179688 C10.15899936 41.00980022 4.75204628 35.94537726 -0.6081543 30.55102539 C-1.91707642 29.23799438 -1.91707642 29.23799438 -3.25244141 27.8984375 C-11.34434011 19.67559949 -18.94910621 11.14783246 -24.7331543 1.11352539 C-16.4695594 0.19086764 -8.31008271 -0.02424784 0 0 Z " fill="#D3D1BE" transform="translate(359.733154296875,576.886474609375)"/>
<path d="M0 0 C12.66528002 10.17264512 19.75473831 25.86545939 21.5625 41.8125 C22.65703858 62.62782379 20.8076034 80.04116235 7 96.6875 C1.35012453 102.62333543 -4.95622833 105.67931785 -12.4375 108.8125 C-13.19417969 109.19535156 -13.95085937 109.57820313 -14.73046875 109.97265625 C-27.2285841 113.85013792 -43.03519345 111.16007417 -54.3515625 105.3046875 C-67.95063077 97.25014293 -75.68247169 86.11551452 -80.59765625 71.3203125 C-85.30264514 51.6687775 -82.85088083 31.61639516 -73.34375 13.87109375 C-66.12777079 2.29299596 -53.24137315 -5.46352517 -40.14453125 -8.765625 C-25.37486071 -11.06739184 -12.38074843 -8.66345175 0 0 Z " fill="#FAFAF1" transform="translate(543.4375,308.1875)"/>
<path d="M0 0 C62.37 0 124.74 0 189 0 C189 18.00308616 188.62042732 36.00760769 188 54 C128.27 54.33 68.54 54.66 7 55 C2.40136061 37.75510229 2.40136061 37.75510229 1.8125 30.25 C1.73918457 29.4463501 1.66586914 28.6427002 1.59033203 27.81469727 C1.44801228 26.24363303 1.3106739 24.67210661 1.17919922 23.10009766 C0.9467096 20.37547134 0.65584943 17.65750749 0.375 14.9375 C-0.00219737 9.9710679 0 4.98073546 0 0 Z " fill="#FAFAEE" transform="translate(295,454)"/>
<path d="M0 0 C28.08343318 10.65980026 54.05973133 29.85538842 72 54 C72.598125 54.77085937 73.19625 55.54171875 73.8125 56.3359375 C79.26445262 63.66199883 83.15094413 71.75647548 87 80 C87.41378906 80.87527344 87.82757812 81.75054687 88.25390625 82.65234375 C94.10290379 96.07063222 95.39986615 110.59879534 97 125 C56.08 125 15.16 125 -27 125 C-27 122.03 -27 119.06 -27 116 C-25.96875 115.5875 -24.9375 115.175 -23.875 114.75 C-16.13960243 111.37060787 -11.28200051 106.44364348 -6 100 C-5.31421875 99.17371094 -4.6284375 98.34742188 -3.921875 97.49609375 C10.69954384 78.77286467 13.95886182 54.74508573 11.3125 31.75 C9.66466858 21.73536259 6.20786261 12.33102434 0.91796875 3.671875 C0 2 0 2 0 0 Z " fill="#FBFBF1" transform="translate(568,313)"/>
<path d="M0 0 C0.66 0 1.32 0 2 0 C1.43602435 3.51871763 0.5374048 6.05926138 -1.25 9.125 C-10.33184994 27.23574448 -13.15974167 51.43815914 -6.9375 70.875 C-6.02425378 73.27611926 -5.04628151 75.65379298 -4 78 C-3.73767578 78.60972656 -3.47535156 79.21945312 -3.20507812 79.84765625 C3.49059887 95.23005087 13.49704771 107.10979898 29 114 C29 117.63 29 121.26 29 125 C15.62052811 124.89187697 2.24110368 124.77912576 -11.13828087 124.66066074 C-17.35258778 124.6057787 -23.56689958 124.55241926 -29.78125 124.50268555 C-35.79190261 124.45452358 -41.80250615 124.40217136 -47.81309891 124.34705925 C-50.09248233 124.3268676 -52.37187908 124.30812033 -54.65128708 124.29092598 C-67.79723356 124.19069767 -80.88202392 123.88769682 -94 123 C-92.75907724 99.66051315 -85.25298117 78.28647983 -72 59 C-71.55285645 58.34837891 -71.10571289 57.69675781 -70.64501953 57.02539062 C-53.57731625 32.53414458 -30.8483343 15.52230381 -4.140625 2.56640625 C-1.20268466 1.30840868 -1.20268466 1.30840868 0 0 Z " fill="#FCFCF0" transform="translate(456,314)"/>
<path d="M0 0 C1.26953125 1.5546875 1.26953125 1.5546875 1.26953125 3.9921875 C-0.12601488 7.56827447 -1.41282037 8.56409847 -4.73046875 10.5546875 C-11.44791012 12.77933506 -18.28438011 14.17098714 -25.29296875 15.0546875 C-26.22987549 15.17505371 -27.16678223 15.29541992 -28.13208008 15.41943359 C-44.75017116 17.40871496 -61.51247735 18.36887368 -78.21325684 19.39910889 C-79.84386256 19.49988998 -81.47432826 19.60297392 -83.10461426 19.70880127 C-98.25613453 20.67925809 -113.39502954 20.71496689 -128.57343292 20.68366241 C-130.6333262 20.67963301 -132.69321677 20.67715325 -134.75311279 20.67498779 C-156.75587218 20.64840188 -178.74486353 20.47964625 -200.73046875 19.5546875 C-201.48531555 19.52310547 -202.24016235 19.49152344 -203.0178833 19.45898438 C-273.01295136 16.47697192 -273.01295136 16.47697192 -280.0703125 9.11328125 C-281.73046875 6.5546875 -281.73046875 6.5546875 -281.85546875 3.9921875 C-280.23727655 0.48610441 -278.05210379 -0.53106476 -274.73046875 -2.4453125 C-264.19016438 -5.48042104 -253.13417313 -6.04969337 -242.23046875 -6.5078125 C-240.58185057 -6.58343185 -238.93325096 -6.65945716 -237.28466797 -6.73583984 C-233.67934522 -6.89964323 -230.07374758 -7.05389456 -226.46777344 -7.20263672 C-222.61870668 -7.36237604 -218.77070332 -7.53643442 -214.92285156 -7.72314453 C-20.48949921 -17.11312575 -20.48949921 -17.11312575 0 0 Z " fill="#8F938A" transform="translate(652.73046875,790.4453125)"/>
<path d="M0 0 C13.39582737 -0.02975121 26.7916441 -0.05097483 40.1875 -0.0625 C41.17545185 -0.06335602 42.1634037 -0.06421204 43.18129349 -0.06509399 C75.46678526 -0.08981328 107.72425188 0.14974558 140 1 C139.2334723 5.48025494 137.61542497 8.68197944 135.125 12.4375 C134.72788818 13.03715576 134.33077637 13.63681152 133.92163086 14.25463867 C132.62860059 16.17979483 131.3152399 18.089964 130 20 C129.55769043 20.65967773 129.11538086 21.31935547 128.65966797 21.99902344 C121.04568958 33.23149897 121.04568958 33.23149897 116.078125 35.09765625 C113.60197882 35.34597034 111.45506464 35.37278639 109 35 C109 35.66 109 36.32 109 37 C108.34 37 107.68 37 107 37 C106.71125 37.5775 106.4225 38.155 106.125 38.75 C103.75 43.5 101.375 48.25 99 53 C66.66 53 34.32 53 1 53 C0.67 52.34 0.34 51.68 0 51 C-0.33 51.66 -0.66 52.32 -1 53 C-5.95 53 -10.9 53 -16 53 C-16 42.11 -16 31.22 -16 20 C-10.72 19.67 -5.44 19.34 0 19 C0 12.73 0 6.46 0 0 Z " fill="#AAA492" transform="translate(561,557)"/>
<path d="M0 0 C4.08957838 -0.02369335 8.17913829 -0.03787579 12.2687645 -0.05093384 C14.14170071 -0.06226727 14.14170071 -0.06226727 16.05247402 -0.07382965 C17.18783502 -0.07590172 18.32319601 -0.07797379 19.49296188 -0.08010864 C20.49389783 -0.08395317 21.49483377 -0.0877977 22.52610111 -0.09175873 C24.78121567 0.02523804 24.78121567 0.02523804 25.78121567 1.02523804 C25.8696931 3.5461788 25.89648868 6.03954697 25.87887192 8.56039429 C25.8767495 9.69027016 25.8767495 9.69027016 25.8745842 10.8429718 C25.86896943 13.25793363 25.8564145 15.67280405 25.84371567 18.08773804 C25.83870257 19.72120024 25.83413933 21.3546639 25.83004379 22.98812866 C25.8189952 27.00053389 25.80172073 31.01287044 25.78121567 35.02523804 C6.73629699 35.36625248 -12.30873667 35.65530445 -31.35535908 35.88269901 C-40.19931706 35.98949405 -49.04243018 36.1132126 -57.88553238 36.27694702 C-65.59423541 36.41963435 -73.30262718 36.53039133 -81.01232046 36.60300153 C-85.09399565 36.64255328 -89.17405132 36.69795276 -93.25487328 36.79161263 C-97.09888171 36.8793324 -100.94105257 36.92422754 -104.78601837 36.93680573 C-106.19429182 36.94886827 -107.60253387 36.97636077 -109.01016045 37.0207119 C-119.63202219 37.34243553 -119.63202219 37.34243553 -123.59145832 34.05564213 C-125.38452714 31.78717626 -126.83713048 29.56070254 -128.21878433 27.02523804 C-129.09627335 25.65782471 -129.09627335 25.65782471 -129.99148941 24.26278687 C-130.60866837 23.13393066 -130.60866837 23.13393066 -131.23831558 21.98226929 C-131.70302261 21.13599976 -132.16772964 20.28973022 -132.64651871 19.41781616 C-133.10349136 18.56639038 -133.56046402 17.7149646 -134.03128433 16.83773804 C-134.50759293 15.97471069 -134.98390152 15.11168335 -135.47464371 14.22250366 C-137.83962371 9.87506503 -139.68155485 5.7405775 -141.21878433 1.02523804 C-123.85706326 0.89352333 -106.49533311 0.76308428 -89.13359165 0.63408661 C-81.06880436 0.57413682 -73.00402035 0.51379887 -64.93924332 0.45248413 C-57.89445671 0.39892521 -50.84966466 0.34615865 -43.80486554 0.29427099 C-40.0888384 0.26687527 -36.37281473 0.23913237 -32.65679741 0.21043396 C-21.7712552 0.12661951 -10.88566585 0.06528579 0 0 Z " fill="#DDDAC5" transform="translate(456.2187843322754,541.9747619628906)"/>
<path d="M0 0 C0.33 0.66 0.66 1.32 1 2 C-8.65733628 14.4522243 -19.51243135 25.37416583 -32 35 C-32.59683594 35.46792969 -33.19367188 35.93585937 -33.80859375 36.41796875 C-42.78516448 43.44389634 -51.83582366 49.77284521 -62 55 C-62.79696289 55.41604492 -63.59392578 55.83208984 -64.41503906 56.26074219 C-90.88081086 69.94178314 -121.0403274 81.1302094 -151.16015625 81.16796875 C-152.10829697 81.17129715 -153.05643768 81.17462555 -154.03330994 81.17805481 C-156.03090942 81.18308959 -158.02851722 81.18546421 -160.02612305 81.18530273 C-163.02993214 81.18747643 -166.03336564 81.20563421 -169.03710938 81.22460938 C-185.24054668 81.27488689 -200.15612587 79.86544046 -215.875 75.625 C-217.00679688 75.33367187 -218.13859375 75.04234375 -219.3046875 74.7421875 C-225.30299364 73.15930116 -231.03896943 71.329035 -236.76123047 68.93310547 C-238.79590781 68.08506438 -240.83672683 67.31403733 -242.9140625 66.578125 C-262.07106947 59.72193303 -280.35273912 50.1263133 -296 37 C-292.67429578 35.33714789 -289.31639055 37.01920148 -285.875 37.9375 C-285.12089844 38.13279297 -284.36679687 38.32808594 -283.58984375 38.52929688 C-281.72491694 39.01323358 -279.86223541 39.50580769 -278 40 C-278 40.99 -278 41.98 -278 43 C-277.40703125 43.11859375 -276.8140625 43.2371875 -276.203125 43.359375 C-274 44 -274 44 -270.75 46.25 C-263.38230318 51.02792369 -254.21026671 53.00306832 -245.74609375 55.02734375 C-242.84945392 55.77944314 -240.661692 56.49862262 -238.0625 57.875 C-231.69974569 60.83621265 -224.83026038 62.04218932 -218.01269531 63.54296875 C-215.34420259 64.1489147 -212.70583563 64.85564702 -210.0625 65.5625 C-202.13448954 67.5580594 -194.07549147 68.77303155 -186 70 C-185.32420898 70.10731445 -184.64841797 70.21462891 -183.95214844 70.32519531 C-163.63601876 73.51382553 -143.02177094 73.06354147 -123.29296875 67 C-120.23156915 66.0703223 -117.17613587 65.29414207 -114.0625 64.5625 C-108.48762268 63.18697544 -103.09299822 61.4439704 -97.6640625 59.578125 C-93.94660139 58.30366298 -90.20757284 57.10772194 -86.4609375 55.921875 C-85.2860376 55.54434082 -84.1111377 55.16680664 -82.90063477 54.77783203 C-80.5685831 54.02856701 -78.23326073 53.28938056 -75.89428711 52.56201172 C-67.90396411 49.96800106 -61.10964928 46.43473721 -54 42 C-50.7 40.02 -47.4 38.04 -44 36 C-68.42 35.67 -92.84 35.34 -118 35 C-118.99 37.97 -118.99 37.97 -120 41 C-125.98913562 50.32313807 -134.56093339 57.23033706 -145 61 C-145.61875 61.37125 -146.2375 61.7425 -146.875 62.125 C-149.8988963 63.37013377 -152.75605445 63 -156 63 C-156.99 63.66 -157.98 64.32 -159 65 C-159.33 64.34 -159.66 63.68 -160 63 C-161.94582852 62.47231769 -163.89465776 61.952309 -165.859375 61.5 C-168.65551653 60.84688665 -171.32490553 60.04393931 -174 59 C-174.33 58.34 -174.66 57.68 -175 57 C-176.82190269 55.90287919 -178.68239155 54.86908033 -180.5625 53.875 C-181.57441406 53.33617187 -182.58632813 52.79734375 -183.62890625 52.2421875 C-184.41136719 51.83226562 -185.19382812 51.42234375 -186 51 C-186 50.01 -186 49.02 -186 48 C-184.68 48 -183.36 48 -182 48 C-181.505 47.01 -181.505 47.01 -181 46 C-180.113125 46.474375 -179.22625 46.94875 -178.3125 47.4375 C-170.53142457 51.1078186 -162.32393389 51.05497703 -154.25 48.25 C-147.1927733 45.4013023 -140.8788207 41.7334584 -137 35 C-135.33152449 30.00487269 -134.18782891 25.16248718 -133 20 C-128.05 20 -123.1 20 -118 20 C-117.67 15.38 -117.34 10.76 -117 6 C-116.67 6 -116.34 6 -116 6 C-116 10.62 -116 15.24 -116 20 C-83.66 20 -51.32 20 -18 20 C-17.67 18.68 -17.34 17.36 -17 16 C-16.2320976 14.45616834 -15.41661002 12.93536059 -14.5625 11.4375 C-13.91474609 10.29087891 -13.91474609 10.29087891 -13.25390625 9.12109375 C-12.22469183 7.38008618 -11.12186516 5.68279774 -10 4 C-9.34 4 -8.68 4 -8 4 C-8 3.34 -8 2.68 -8 2 C-9.98 1.505 -9.98 1.505 -12 1 C-8.04 0.67 -4.08 0.34 0 0 Z " fill="#A6A292" transform="translate(678,590)"/>
<path d="M0 0 C9.57 0 19.14 0 29 0 C29.64745976 15.28544593 30.10405676 30.5433097 30.28125 45.83984375 C30.29079712 46.65462818 30.30034424 47.46941261 30.31018066 48.30888748 C30.38797965 55.04556589 30.4580523 61.78232045 30.52606201 68.519104 C30.57741706 73.5951136 30.6322389 78.67106139 30.69187927 83.74698067 C30.71793994 86.07983057 30.73902286 88.41268902 30.7598877 90.74559021 C30.83797019 98.03773812 31.0697349 105.27046788 31.77130127 112.53509521 C32.10541062 116.13611096 32.20637855 119.69555445 32.25 123.3125 C32.27578125 124.60800781 32.3015625 125.90351562 32.328125 127.23828125 C31.90617704 132.07561325 30.7586431 135.90019935 27.5703125 139.70703125 C23.14649434 143.09065433 20.2004051 145.08001473 14.5625 144.875 C7.82409702 143.21995365 4.00903712 139.38356414 0 134 C-1.02574583 130.92276252 -1.11002664 128.8864263 -1.08229065 125.66596985 C-1.07525116 124.55959167 -1.06821167 123.4532135 -1.06095886 122.31330872 C-1.04801285 121.0991478 -1.03506683 119.88498688 -1.02172852 118.6340332 C-1.01212097 117.35587738 -1.00251343 116.07772156 -0.99261475 114.76083374 C-0.96614551 111.25487522 -0.93336362 107.74900058 -0.89946485 104.24310708 C-0.86511018 100.57959683 -0.83653813 96.91604164 -0.80735779 93.25248718 C-0.75121564 86.31455991 -0.68985833 79.3766889 -0.62663645 72.43882293 C-0.55491565 64.54050863 -0.48899485 56.64214927 -0.42356598 48.74378073 C-0.28883997 32.49579333 -0.1460492 16.24789017 0 0 Z " fill="#FAF9F4" transform="translate(498,481)"/>
<path d="M0 0 C4.56250113 0.00256525 9.12500044 0.00017548 13.68750167 -0.00138617 C21.31977369 -0.00319198 28.95203595 -0.00083954 36.58430648 0.00395441 C45.41205205 0.00943513 54.23977467 0.00760067 63.06751972 0.00212801 C70.67641048 -0.00239983 78.2852943 -0.00305653 85.89418596 -0.00043333 C90.42724219 0.00112602 94.96028758 0.00133173 99.49334311 -0.00196981 C103.73459757 -0.00484509 107.97582201 -0.00287932 112.2170732 0.00292444 C113.77601422 0.00425214 115.33495774 0.00385776 116.89389777 0.00166178 C119.01187087 -0.00104831 121.12974609 0.00232909 123.24771285 0.00734186 C124.43498379 0.00771889 125.62225472 0.00809591 126.84550357 0.00848436 C129.48396468 0.1343255 129.48396468 0.1343255 130.48396468 1.1343255 C130.58420594 3.77008093 130.62271489 6.37386795 130.60896468 9.0093255 C130.61283187 9.74280207 130.61669906 10.47627863 130.62068343 11.23198175 C130.61480606 14.45865789 130.51115328 17.05275972 129.48396468 20.1343255 C37.41396468 20.6293255 37.41396468 20.6293255 -56.51603532 21.1343255 C-57.39884756 16.72026428 -57.63346782 12.77233005 -57.57853532 8.3218255 C-57.55737505 5.92599504 -57.53651527 3.53016188 -57.51603532 1.1343255 C-38.34776987 -0.04850004 -19.19550917 -0.01419774 0 0 Z " fill="#F9F8EB" transform="translate(598.5160353183746,453.865674495697)"/>
<path d="M0 0 C0 6.27 0 12.54 0 19 C-89.595 19.495 -89.595 19.495 -181 20 C-184 8 -184 8 -184 2 C-182.14564208 0.14564208 -179.08189551 0.85491004 -176.60275269 0.84178162 C-175.92644495 0.83684364 -175.25013722 0.83190566 -174.55333531 0.82681805 C-172.26977172 0.81136797 -169.98623641 0.80306166 -167.70263672 0.79467773 C-166.07167306 0.78510376 -164.44071192 0.77509397 -162.80975342 0.76467896 C-158.36268236 0.73753872 -153.91560063 0.71657023 -149.46849203 0.69667697 C-144.80963299 0.6748207 -140.15080664 0.64741841 -135.49197388 0.62062073 C-127.65172765 0.57628827 -119.81146976 0.53552713 -111.97119141 0.49731445 C-100.9583646 0.4436389 -89.94557655 0.38399507 -78.93278861 0.32291877 C-64.13979965 0.24113855 -49.34679765 0.16146716 -34.55376434 0.08810806 C-32.96040663 0.08016999 -31.3670495 0.07211225 -29.77369308 0.06391716 C-19.84897833 0.01306562 -9.92485577 -0.00732397 0 0 Z " fill="#FCFCEF" transform="translate(483,489)"/>
<path d="M0 0 C1.12962373 -0.00128164 1.12962373 -0.00128164 2.28206813 -0.00258917 C4.81867429 -0.00424312 7.35521507 0.00127603 9.89181519 0.00672913 C11.704895 0.00701104 13.51797494 0.00685318 15.33105469 0.00628662 C20.26467314 0.00599882 25.19826746 0.01189279 30.13188028 0.01886058 C35.28353663 0.02509696 40.43519349 0.02569814 45.58685303 0.02688599 C55.34743237 0.02999846 65.10800056 0.03821072 74.86857498 0.04823548 C85.97844475 0.05939921 97.08831504 0.06490772 108.19818902 0.06993091 C131.05684555 0.0803934 153.91549138 0.09819183 176.7741394 0.12025452 C176.4441394 6.06025452 176.1141394 12.00025452 175.7741394 18.12025452 C174.7841394 17.13025452 174.7841394 17.13025452 173.7741394 16.12025452 C170.77812849 15.83621015 170.77812849 15.83621015 167.19366455 15.91770935 C166.51000246 15.92008405 165.82634036 15.92245876 165.12196124 15.92490542 C162.82014737 15.93536209 160.51871177 15.96024424 158.2170105 15.98500061 C156.57142146 15.99542167 154.92582662 16.00495784 153.28022766 16.01367188 C148.80311791 16.03990196 144.32619033 16.07856679 139.8491931 16.11939573 C135.17404662 16.15993972 130.49882995 16.18914307 125.8236084 16.2195282 C116.96606944 16.2788291 108.10864168 16.34838979 99.25120795 16.42159903 C89.16918283 16.50443311 79.08708724 16.5758868 69.00496936 16.64636493 C48.26125477 16.79162798 27.51767627 16.95165018 6.7741394 17.12025452 C6.7741394 22.73025452 6.7741394 28.34025452 6.7741394 34.12025452 C11.3941394 34.12025452 16.0141394 34.12025452 20.7741394 34.12025452 C20.7741394 34.45025452 20.7741394 34.78025452 20.7741394 35.12025452 C11.2041394 35.12025452 1.6341394 35.12025452 -8.2258606 35.12025452 C-8.5558606 23.90025452 -8.8858606 12.68025452 -9.2258606 1.12025452 C-6.26077884 -0.36228636 -3.25031755 -0.01333269 0 0 Z " fill="#B4AFA0" transform="translate(551.2258605957031,473.87974548339844)"/>
<path d="M0 0 C-0.11514149 2.04224637 -0.24257326 4.08380159 -0.375 6.125 C-0.44460938 7.26195312 -0.51421875 8.39890625 -0.5859375 9.5703125 C-1 13 -1 13 -3 19 C-57.45 19 -111.9 19 -168 19 C-168.33 13.06 -168.66 7.12 -169 1 C-147.11279095 0.86958139 -125.22558172 0.73919407 -103.33837223 0.60884857 C-93.17650913 0.54833056 -83.01464609 0.48780135 -72.8527832 0.42724609 C-63.99906392 0.37448618 -55.14534452 0.32174697 -46.29162496 0.26903296 C-41.60063158 0.24110259 -36.90963827 0.21316164 -32.2186451 0.18519592 C-27.80861361 0.15890551 -23.39858196 0.13264265 -18.98855019 0.10640144 C-17.36512496 0.09673655 -15.74169979 0.08706136 -14.11827469 0.07737541 C-11.91157802 0.06421095 -9.70488114 0.05108263 -7.4981842 0.03796387 C-6.26021623 0.03058952 -5.02224825 0.02321518 -3.74676609 0.01561737 C-1 0 -1 0 0 0 Z " fill="#FCFCEF" transform="translate(726,489)"/>
<path d="M0 0 C-0.57253544 5.36002222 -1.06105691 8.41524878 -4 13 C-4.69730806 15.3243602 -5.36912152 17.65673706 -6 20 C-7 21 -7 21 -9.48127079 21.10743046 C-10.59387492 21.09913432 -11.70647905 21.09083818 -12.85279846 21.08229065 C-14.12471039 21.07525116 -15.39662231 21.06821167 -16.70707703 21.06095886 C-18.12967004 21.04797466 -19.55226218 21.03489463 -20.97485352 21.02172852 C-22.46266395 21.01159174 -23.95047745 21.00189742 -25.43829346 20.99261475 C-29.48980002 20.96607349 -33.54123561 20.93330648 -37.59268689 20.89946485 C-41.82209623 20.86518125 -46.0515437 20.83656335 -50.2809906 20.80735779 C-58.29562399 20.75114665 -66.31020963 20.68980191 -74.32479089 20.62663645 C-83.44674063 20.55499165 -92.56872866 20.4890338 -101.69072449 20.42356598 C-120.46053308 20.28872854 -139.23027913 20.14650753 -158 20 C-158 13.73 -158 7.46 -158 1 C-141.68135028 0.86824894 -125.36269114 0.73775865 -109.04401875 0.60884857 C-101.46350413 0.54893573 -93.88299324 0.48861138 -86.30249023 0.42724609 C-79.67960612 0.373634 -73.05671584 0.3208674 -66.43381757 0.26903296 C-62.94135525 0.24167169 -59.44889689 0.21394389 -55.95644569 0.18519592 C-37.30363323 0.03199731 -18.65334955 -0.02984878 0 0 Z " fill="#EEECD9" transform="translate(717,523)"/>
<path d="M0 0 C1.08120531 0.00436926 1.08120531 0.00436926 2.18425316 0.00882679 C2.94464832 0.00797237 3.70504348 0.00711794 4.48848093 0.00623763 C7.05583184 0.00458053 9.62311851 0.01010792 12.19046348 0.01555592 C14.02309998 0.01583777 15.8557366 0.0156801 17.68837303 0.01511341 C22.67989996 0.01482535 27.67140309 0.02072354 32.66292447 0.02768737 C37.87331041 0.0339194 43.08369683 0.03452459 48.29408592 0.03571278 C58.16802959 0.03882654 68.04196225 0.04704053 77.91590106 0.05706227 C89.15391935 0.06822202 100.39193815 0.07373351 111.6299606 0.0787577 C134.75421983 0.08922311 157.87846851 0.10702377 181.00271934 0.12908131 C180.67271934 5.07908131 180.34271934 10.02908131 180.00271934 15.12908131 C169.27783874 15.94639778 158.66197465 16.27984219 147.90970176 16.28679615 C146.25558158 16.29147866 144.60146264 16.29662452 142.9473452 16.30219227 C139.41989273 16.31336124 135.89244815 16.3218476 132.36498398 16.3283115 C126.78898255 16.33908791 121.21303967 16.35934947 115.63707298 16.38143116 C99.79373122 16.44305964 83.950397 16.49753675 68.10696739 16.5304485 C59.33071179 16.54875801 50.55455833 16.57762714 41.77837777 16.6184532 C37.14176433 16.63954549 32.50527953 16.65498403 27.86861557 16.65726048 C23.52228513 16.65939795 19.17622477 16.67517389 14.8299765 16.7016502 C13.2327747 16.708873 11.63554028 16.71092984 10.03832573 16.70754772 C7.8653 16.7036795 5.6931485 16.71801827 3.52022117 16.73708302 C2.30265727 16.74039316 1.08509336 16.74370331 -0.16936642 16.74711376 C-1.10257812 16.87316305 -2.03578982 16.99921234 -2.99728066 17.12908131 C-3.65728066 18.11908131 -4.31728066 19.10908131 -4.99728066 20.12908131 C-5.82364359 15.80707202 -6.13233421 11.71500965 -6.12228066 7.31658131 C-6.12485878 6.175761 -6.12743691 5.03494068 -6.13009316 3.85955006 C-5.90477007 -0.77282745 -4.17345793 0.01278585 0 0 Z " fill="#B4AE9E" transform="translate(302.9972806572914,473.8709186911583)"/>
<path d="M0 0 C1.09287175 -0.00128164 1.09287175 -0.00128164 2.20782173 -0.00258917 C4.66151148 -0.00424291 7.11513363 0.00127569 9.56881714 0.00672913 C11.32278441 0.00701105 13.07675179 0.00685317 14.83071899 0.00628662 C19.6031859 0.00599884 24.37562785 0.01189252 29.14808893 0.01886058 C34.13158194 0.02509725 39.11507547 0.02569816 44.09857178 0.02688599 C53.54040759 0.02999837 62.98223188 0.03821052 72.42406261 0.04823548 C83.17118227 0.05939948 93.91830248 0.06490779 104.66542649 0.06993091 C126.77759974 0.0803932 148.88975717 0.09873754 171.00192261 0.12025452 C171.00192261 11.67025452 171.00192261 23.22025452 171.00192261 35.12025452 C170.67192261 35.12025452 170.34192261 35.12025452 170.00192261 35.12025452 C170.00192261 28.52025452 170.00192261 21.92025452 170.00192261 15.12025452 C167.14697144 15.15054749 164.29202026 15.18084045 161.35055542 15.21205139 C147.98439275 15.3529243 134.61817405 15.48808828 121.25192261 15.62025452 C120.05114326 15.63213177 118.85036392 15.64400902 117.61319733 15.65624619 C86.20093712 15.9652788 54.79087173 16.22026371 23.37692261 16.18275452 C22.65452896 16.1818985 21.93213531 16.18104248 21.18785095 16.18016052 C12.79251403 16.16941732 4.397213 16.15049287 -3.99807739 16.12025452 C-4.32807739 16.78025452 -4.65807739 17.44025452 -4.99807739 18.12025452 C-5.671724 16.03916767 -6.33674537 13.95528741 -6.99807739 11.87025452 C-7.36932739 10.71009827 -7.74057739 9.54994202 -8.12307739 8.35462952 C-8.99807739 5.12025452 -8.99807739 5.12025452 -8.99807739 1.12025452 C-6.01698354 -0.37029241 -3.32682949 -0.00233954 0 0 Z " fill="#B3AC9D" transform="translate(311.9980773925781,507.87974548339844)"/>
<path d="M0 0 C0.66 0 1.32 0 2 0 C1.42751758 3.58587887 0.47176865 6.22629062 -1.3125 9.375 C-3.32283282 13.15647589 -4.44872007 16.66270408 -5.32080078 20.85571289 C-7.09667853 29.21082373 -7.09667853 29.21082373 -9.79296875 31.56640625 C-11.9375 32.4375 -11.9375 32.4375 -14.3046875 33.12890625 C-22.88632932 35.90239339 -31.03087978 42.32411859 -38 48 C-39.10794922 48.87205078 -39.10794922 48.87205078 -40.23828125 49.76171875 C-45.42479279 54.05911403 -48.95575774 58.52213573 -52.390625 64.3046875 C-53.80213984 66.66863225 -55.31719769 68.8411178 -56.9375 71.0625 C-64.78298401 82.84124275 -69.12337733 96.27003286 -72 110 C-72.29949966 111.37007245 -72.60028413 112.73986466 -72.90234375 114.109375 C-73.6197853 117.40233252 -74.31263205 120.70063386 -75 124 C-81.27 123.67 -87.54 123.34 -94 123 C-92.70218501 99.63933013 -85.27304688 78.31568058 -72 59 C-71.55285645 58.34837891 -71.10571289 57.69675781 -70.64501953 57.02539062 C-53.57731625 32.53414458 -30.8483343 15.52230381 -4.140625 2.56640625 C-1.20268466 1.30840868 -1.20268466 1.30840868 0 0 Z " fill="#C0C3B3" transform="translate(456,314)"/>
<path d="M0 0 C28.08343318 10.65980026 54.05973133 29.85538842 72 54 C72.598125 54.77085937 73.19625 55.54171875 73.8125 56.3359375 C79.26445262 63.66199883 83.15094413 71.75647548 87 80 C87.41378906 80.87527344 87.82757812 81.75054687 88.25390625 82.65234375 C94.08027775 96.01872542 95.64318354 110.64035911 97 125 C90.4 125 83.8 125 77 125 C76.75765625 123.55109375 76.5153125 122.1021875 76.265625 120.609375 C73.68562337 105.5280798 73.68562337 105.5280798 69 91 C68.73203613 90.29810547 68.46407227 89.59621094 68.18798828 88.87304688 C63.96962454 77.85830368 59.33911014 68.31365193 52 59 C51.57315918 58.44586426 51.14631836 57.89172852 50.70654297 57.32080078 C41.44265683 45.36750858 30.99715232 38.14649386 17.40625 31.6640625 C11.23893423 28.65113071 11.23893423 28.65113071 10.33203125 26.1796875 C10.16058594 25.41914063 9.98914063 24.65859375 9.8125 23.875 C8.21562207 17.95613724 5.51987964 12.76438184 2.69262695 7.35888672 C0 2.18186765 0 2.18186765 0 0 Z " fill="#CBCEC4" transform="translate(568,313)"/>
<path d="M0 0 C13.39582737 -0.02975121 26.7916441 -0.05097483 40.1875 -0.0625 C41.17545185 -0.06335602 42.1634037 -0.06421204 43.18129349 -0.06509399 C75.46678526 -0.08981328 107.72425188 0.14974558 140 1 C139.18244379 5.93918179 137.32956926 9.124676 134.625 13.25 C134.22539063 13.88679687 133.82578125 14.52359375 133.4140625 15.1796875 C130.37767009 19.87410997 130.37767009 19.87410997 127 21 C125.14122009 20.88110352 125.14122009 20.88110352 122.91772461 20.56640625 C115.89670486 19.77750806 108.87998276 19.88869635 101.82641792 19.92483521 C99.2494181 19.937838 96.6724712 19.94417795 94.09544373 19.94897461 C87.67442111 19.96221334 81.25344696 19.98597194 74.8324585 20.01037598 C68.55628126 20.03386477 62.28011983 20.05224772 56.00390625 20.0625 C55.12542652 20.06402069 54.24694679 20.06554138 53.34184647 20.06710815 C35.54799915 20.0869663 17.78140991 19.63145112 0 19 C0 12.73 0 6.46 0 0 Z " fill="#DDD8C4" transform="translate(561,557)"/>
<path d="M0 0 C4.08957838 -0.02369335 8.17913829 -0.03787579 12.2687645 -0.05093384 C14.14170071 -0.06226727 14.14170071 -0.06226727 16.05247402 -0.07382965 C17.18783502 -0.07590172 18.32319601 -0.07797379 19.49296188 -0.08010864 C20.49389783 -0.08395317 21.49483377 -0.0877977 22.52610111 -0.09175873 C24.78121567 0.02523804 24.78121567 0.02523804 25.78121567 1.02523804 C25.78121567 5.97523804 25.78121567 10.92523804 25.78121567 16.02523804 C-27.01878433 16.02523804 -79.81878433 16.02523804 -134.21878433 16.02523804 C-141.21878433 2.02523804 -141.21878433 2.02523804 -141.21878433 1.02523804 C-123.85706326 0.89352333 -106.49533311 0.76308428 -89.13359165 0.63408661 C-81.06880436 0.57413682 -73.00402035 0.51379887 -64.93924332 0.45248413 C-57.89445671 0.39892521 -50.84966466 0.34615865 -43.80486554 0.29427099 C-40.0888384 0.26687527 -36.37281473 0.23913237 -32.65679741 0.21043396 C-21.7712552 0.12661951 -10.88566585 0.06528579 0 0 Z " fill="#B3AC9B" transform="translate(456.2187843322754,541.9747619628906)"/>
<path d="M0 0 C1.34150694 0.00028278 2.68301403 0.00012237 4.02452087 -0.0004425 C7.63120636 -0.00072695 11.23785792 0.0051122 14.84453559 0.01213145 C18.62680876 0.01842425 22.40908288 0.01897345 26.19136047 0.02015686 C33.33794376 0.02325282 40.48451157 0.0314426 47.63108808 0.04150635 C55.7738705 0.05272165 63.91665369 0.05819153 72.05944192 0.06320179 C88.79525247 0.07362684 105.53104649 0.09139612 122.2668457 0.11352539 C122.2668457 5.06352539 122.2668457 10.01352539 122.2668457 15.11352539 C121.12347748 15.11130478 119.98010925 15.10908417 118.80209351 15.10679626 C107.83568879 15.08620538 96.86928818 15.07138493 85.90286827 15.06171322 C80.26979113 15.05657325 74.63673002 15.04964533 69.00366211 15.03808594 C63.55506401 15.02691571 58.10648358 15.02186202 52.65787506 15.01948929 C49.41818585 15.01587238 46.17857438 15.00473982 42.93890381 14.99349976 C32.89796867 14.97613947 22.9164954 15.11442459 12.89282227 15.72729492 C11.13028588 15.82296706 9.3677234 15.91815989 7.60513306 16.01283264 C4.37955389 16.18793215 1.17144526 16.43494768 -2.0453186 16.72776794 C-12.08346436 17.42094369 -12.08346436 17.42094369 -16.66802979 13.78756714 C-19.99047746 9.82561068 -22.45502262 5.73116684 -24.7331543 1.11352539 C-16.4695594 0.19086764 -8.31008271 -0.02424784 0 0 Z " fill="#ADA895" transform="translate(359.733154296875,576.886474609375)"/>
<path d="M0 0 C13.36044574 -0.02315111 26.72088672 -0.04092926 40.08134842 -0.05181217 C46.28487099 -0.05703492 52.48837985 -0.06412159 58.69189453 -0.07543945 C64.6765125 -0.08628986 70.66111728 -0.09228143 76.64574432 -0.09487724 C78.93113157 -0.09672759 81.21651808 -0.10034076 83.50189972 -0.10573006 C86.69822257 -0.112969 89.8944906 -0.11398972 93.09082031 -0.11352539 C94.03956528 -0.11712067 94.98831024 -0.12071594 95.96580505 -0.12442017 C96.83796158 -0.1230455 97.7101181 -0.12167084 98.60870361 -0.12025452 C99.74250898 -0.12163721 99.74250898 -0.12163721 100.89921951 -0.12304783 C103.04565519 0.00267414 104.93645367 0.41104732 107 1 C107 1.66 107 2.32 107 3 C106.34 3 105.68 3 105 3 C104.71125 3.5775 104.4225 4.155 104.125 4.75 C101.75 9.5 99.375 14.25 97 19 C64.66 19 32.32 19 -1 19 C-1 5 -1 5 0 0 Z " fill="#D9D6C2" transform="translate(563,591)"/>
<path d="M0 0 C39.27 0 78.54 0 119 0 C121 11 121 11 119 14 C114.41822909 15.51243156 109.37575634 15.19187866 104.5949707 15.24047852 C103.65445358 15.25347488 102.71393646 15.26647125 101.74491882 15.27986145 C91.93110253 15.40639333 82.11644995 15.46327474 72.30200195 15.51489258 C67.65080302 15.54164277 63.00062803 15.59039114 58.34985352 15.65844727 C52.72240487 15.74056972 47.0959318 15.78310247 41.46791649 15.79795647 C39.32971087 15.81017129 37.1915358 15.83612742 35.0536747 15.87640572 C16.25502291 16.21287461 16.25502291 16.21287461 9.98510742 11.38647461 C7.99162292 9.40489197 7.99162292 9.40489197 6 7 C4.02 4.69 2.04 2.38 0 0 Z " fill="#ADA694" transform="translate(363,610)"/>
<path d="M0 0 C1 3 1 3 -0.1875 5.48828125 C-6.67496694 15.59698512 -14.5456558 22.86370904 -26 27 C-26.61875 27.37125 -27.2375 27.7425 -27.875 28.125 C-30.8988963 29.37013377 -33.75605445 29 -37 29 C-37.99 29.66 -38.98 30.32 -40 31 C-40.33 30.34 -40.66 29.68 -41 29 C-42.94582852 28.47231769 -44.89465776 27.952309 -46.859375 27.5 C-49.65551653 26.84688665 -52.32490553 26.04393931 -55 25 C-55.33 24.34 -55.66 23.68 -56 23 C-57.82190269 21.90287919 -59.68239155 20.86908033 -61.5625 19.875 C-62.57441406 19.33617187 -63.58632813 18.79734375 -64.62890625 18.2421875 C-65.41136719 17.83226562 -66.19382812 17.42234375 -67 17 C-67 16.01 -67 15.02 -67 14 C-65.68 14 -64.36 14 -63 14 C-62.67 13.34 -62.34 12.68 -62 12 C-60.6696875 12.7115625 -60.6696875 12.7115625 -59.3125 13.4375 C-51.53142457 17.1078186 -43.32393389 17.05497703 -35.25 14.25 C-28.0197841 11.39763856 -28.0197841 11.39763856 -22.68359375 5.96875 C-17.0274985 -2.4194017 -9.1359774 -0.73992168 0 0 Z " fill="#ABAEA2" transform="translate(559,624)"/>
<path d="M0 0 C7.59 0 15.18 0 23 0 C23.33 10.89 23.66 21.78 24 33 C16.08 32.67 8.16 32.34 0 32 C0 21.44 0 10.88 0 0 Z " fill="#E4F1E8" transform="translate(501,434)"/>
<path d="M0 0 C199.32 0 398.64 0 604 0 C601 3 601 3 598.55450821 3.07932568 C597.52349865 2.95301927 596.49248909 2.82671286 595.43023682 2.69657898 C588.69169954 2.06514522 582.03702451 1.87895136 575.26947021 1.86628723 C573.61966227 1.8623022 573.61966227 1.8623022 571.93652487 1.85823667 C568.32974588 1.85317594 564.72299302 1.85390801 561.11621094 1.85473633 C558.50658623 1.85174045 555.89696195 1.84833693 553.28733826 1.84455872 C546.96657687 1.83630502 540.64582482 1.83350644 534.32505849 1.83294634 C529.19049226 1.83246942 524.05592909 1.83040598 518.92136383 1.82724571 C504.34976267 1.81845985 489.77816883 1.81382403 475.20656499 1.81457619 C474.42345226 1.81461614 473.64033952 1.8146561 472.83349609 1.81469727 C472.04942482 1.81473815 471.26535355 1.81477903 470.45752254 1.81482115 C457.71099419 1.81522883 444.96449519 1.80562322 432.21797535 1.7915589 C419.1161566 1.77721668 406.01435222 1.77028727 392.91252542 1.77115268 C385.56182628 1.771485 378.21115807 1.7687213 370.860466 1.75797462 C363.96245302 1.74795338 357.06450669 1.74818244 350.16649055 1.75549126 C347.6291526 1.75654234 345.09181065 1.75414346 342.5544796 1.7481308 C339.10514959 1.74048271 335.65605064 1.74500736 332.20672607 1.75276184 C330.68313717 1.7450465 330.68313717 1.7450465 329.12876868 1.73717529 C328.21032054 1.74177408 327.2918724 1.74637288 326.3455925 1.75111103 C325.54893386 1.75089366 324.75227521 1.75067629 323.9314754 1.75045234 C321.76199998 1.8308851 321.76199998 1.8308851 320 4 C319.67 3.67 319.34 3.34 319 3 C313.82264323 2.62947661 313.82264323 2.62947661 309 4 C308.34 3.34 307.68 2.68 307 2 C304.87721961 1.70468024 304.87721961 1.70468024 302.38954163 1.76622009 C300.92184956 1.76426762 300.92184956 1.76426762 299.42450714 1.7622757 C297.79910633 1.77541431 297.79910633 1.77541431 296.14086914 1.78881836 C294.99460304 1.79010994 293.84833694 1.79140152 292.66733551 1.79273224 C289.46901945 1.79811464 286.27087766 1.81242014 283.07261014 1.8300426 C279.61140593 1.84669269 276.15018631 1.85115952 272.68894958 1.85670471 C266.6586565 1.86769736 260.62840962 1.88494605 254.59814453 1.90625 C239.1899823 1.95992956 223.78175068 1.97760428 208.37350988 1.99339151 C205.79974808 1.99611135 203.22598686 1.99918161 200.65222549 2.002285 C158.85007984 2.05020656 117.05013621 1.79950155 75.24910498 1.51842737 C71.56842872 1.49375564 67.88775013 1.46944356 64.20707148 1.44513208 C42.80466391 1.30370598 21.40230684 1.15594318 0 1 C0 0.67 0 0.34 0 0 Z " fill="#DCD9C9" transform="translate(319,0)"/>
<path d="M0 0 C0.99773437 0.02320313 1.99546875 0.04640625 3.0234375 0.0703125 C4.52777344 0.09738281 4.52777344 0.09738281 6.0625 0.125 C6.83335937 0.14820313 7.60421875 0.17140625 8.3984375 0.1953125 C9.0171875 1.8659375 9.0171875 1.8659375 9.6484375 3.5703125 C9.926875 4.29992187 10.2053125 5.02953125 10.4921875 5.78125 C11.10070874 7.40222467 11.68381533 9.03294928 12.2421875 10.671875 C15.01016991 18.3792743 19.27577611 23.40484913 25.3359375 28.8203125 C27.3984375 31.1953125 27.3984375 31.1953125 28.0234375 34.3203125 C27.3984375 37.1953125 27.3984375 37.1953125 25.3359375 39.1328125 C21.38763697 40.5609212 19.45713863 40.34527782 15.3984375 39.1953125 C6.2161176 34.40384016 0.38778934 27.71081949 -3.69140625 18.25390625 C-5.2586317 12.98722158 -5.36121532 7.62483106 -4.6015625 2.1953125 C-2.6015625 0.1953125 -2.6015625 0.1953125 0 0 Z " fill="#2E252B" transform="translate(479.6015625,358.8046875)"/>
<path d="M0 0 C2 1.5625 2 1.5625 3 4 C3.29121118 7.49453413 3.39794826 8.91662218 2 12 C-0.34192688 14.21521815 -2.82066027 16.03237198 -5.4453125 17.90234375 C-8.11559904 20.09491848 -9.40154388 22.00183345 -11.0625 25 C-13.36052258 28.8322325 -13.36052258 28.8322325 -16.29296875 29.6015625 C-19.53328675 29.63247173 -22.08470402 29.45764799 -25 28 C-24.2481916 16.80064722 -21.30404114 9.81277154 -13 2 C-8.41689544 -1.18011337 -5.38413584 -1.52381203 0 0 Z " fill="#35292D" transform="translate(502,320)"/>
<path d="M0 0 C12.66970387 1.92710706 12.66970387 1.92710706 18 4 C18 4.99 18 5.98 18 7 C18.59296875 7.11859375 19.1859375 7.2371875 19.796875 7.359375 C22 8 22 8 25.25 10.25 C32.61407855 15.02557725 41.76867629 16.97967023 50.21875 19.04296875 C54.32384003 20.08196364 58.06597924 21.45449184 62 23 C57.33367936 24.55544021 53.53441459 22.51147153 49 21 C49.66868314 24.11332248 49.66868314 24.11332248 52.0625 25.1875 C52.701875 25.455625 53.34125 25.72375 54 26 C54 26.66 54 27.32 54 28 C52.33388095 28.042721 50.66617115 28.04063832 49 28 C48.67 27.67 48.34 27.34 48 27 C46.97777344 26.88527344 45.95554687 26.77054688 44.90234375 26.65234375 C40.67633966 25.94589462 37.31831426 24.51887909 33.5625 22.5625 C32.53467407 22.03668335 32.53467407 22.03668335 31.48608398 21.50024414 C20.54788426 15.79492903 9.1688405 9.32836346 0 1 C0 0.67 0 0.34 0 0 Z " fill="#A2A599" transform="translate(382,626)"/>
<path d="M0 0 C2.9375 1.875 2.9375 1.875 5 5 C5.85541439 9.17970771 6.02317069 13.12669484 3.9375 16.9453125 C1.08106832 20.46484439 -0.86132144 21.84960849 -5.3125 22.4375 C-9 22 -9 22 -11.9375 19.625 C-14.44458451 16.08657304 -14.83904022 12.68413225 -14.61328125 8.4140625 C-13.6987514 4.81419339 -11.98806475 3.11994591 -9.00390625 1.00390625 C-5.72702066 -0.63773039 -3.56854215 -0.72692525 0 0 Z " fill="#302422" transform="translate(314,636)"/>
<path d="M0 0 C3.84125056 0.74388158 6.3731071 2.03611786 8.6875 5.37109375 C10.24934073 8.98285045 10.2813803 12.42757206 9.5 16.25 C7.70606332 19.12029869 6.51736724 20.74131638 3.5 22.25 C-0.21115662 22.66235074 -1.98937977 22.57062201 -5.1875 20.5625 C-7.59759257 18.15240743 -9.18175786 16.39913401 -10.5 13.25 C-10.5 9.15824617 -9.75862475 6.13009468 -7.5 2.75 C-4.34225998 0.11854999 -3.85823466 -0.18005095 0 0 Z " fill="#302224" transform="translate(714.5,632.75)"/>
<path d="M0 0 C4.41119894 1.17031809 7.3951299 3.06748181 10.0625 6.8125 C10.89175177 9.98480544 10.81855501 12.6300359 10.0625 15.8125 C8.26856332 18.68279869 7.07986724 20.30381638 4.0625 21.8125 C1.09854618 22.21667552 -1.02654926 22.37632171 -3.62890625 20.765625 C-7.18962442 17.84841011 -8.7499379 16.17902385 -9.375 11.625 C-8.86264477 7.16019012 -7.70748496 5.31898911 -4.64453125 2.1484375 C-2.9375 0.8125 -2.9375 0.8125 0 0 Z " fill="#1E1519" transform="translate(238.9375,440.1875)"/>
<path d="M0 0 C5.94 0 11.88 0 18 0 C18 1.65 18 3.3 18 5 C17.34 5 16.68 5 16 5 C16.01160156 5.84304688 16.02320313 6.68609375 16.03515625 7.5546875 C16.04417969 8.65039062 16.05320312 9.74609375 16.0625 10.875 C16.07410156 11.96554687 16.08570313 13.05609375 16.09765625 14.1796875 C16 17 16 17 15 19 C10.05 19 5.1 19 0 19 C0 12.73 0 6.46 0 0 Z " fill="#B8BDB3" transform="translate(545,591)"/>
<path d="M0 0 C12.75 -0.125 12.75 -0.125 15 1 C15 7.27 15 13.54 15 20 C8 21 8 21 0 21 C0 14.07 0 7.14 0 0 Z " fill="#BEC3B5" transform="translate(544,523)"/>
<path d="M0 0 C5.28 0 10.56 0 16 0 C16 5.94 16 11.88 16 18 C10.83608171 19.7213061 5.40708764 19.05353552 0 19 C0 12.73 0 6.46 0 0 Z " fill="#BEC3B5" transform="translate(545,558)"/>
<path d="M0 0 C10.83984375 -0.09765625 10.83984375 -0.09765625 14 0 C15 1 15 1 15.09765625 4.81640625 C15.09098089 6.39846682 15.07901875 7.98051159 15.0625 9.5625 C15.05798828 10.36880859 15.05347656 11.17511719 15.04882812 12.00585938 C15.03700518 14.00393756 15.01906914 16.00197783 15 18 C19.62 18 24.24 18 29 18 C29 18.33 29 18.66 29 19 C19.43 19 9.86 19 0 19 C0 12.73 0 6.46 0 0 Z " fill="#C5D3C8" transform="translate(543,490)"/>
<path d="M0 0 C2.1953125 0.47265625 2.1953125 0.47265625 5.2578125 2.41015625 C7.49783304 5.95083388 7.99100787 8.11291096 7.7421875 12.24609375 C6.94271031 15.50110802 5.51698064 17.29070336 2.9765625 19.4296875 C-0.20042495 21.28989726 -2.26071322 21.245887 -5.8046875 20.47265625 C-8.97631672 17.84087881 -10.44513118 16.27043783 -11.25 12.24609375 C-11.44241696 8.41058229 -11.00966767 5.90935314 -9.3671875 2.41015625 C-6.12029284 -0.04481288 -4.00332725 -0.25763987 0 0 Z " fill="#26181A" transform="translate(784.8046875,441.52734375)"/>
<path d="M0 0 C3.55247432 0.87379409 4.94828114 2.4927342 6.9375 5.4765625 C7.67051898 10.09458205 7.65315523 13.06616299 5 16.9765625 C1.36140371 19.94684518 -0.43867812 20.0966262 -4.9765625 19.98046875 C-7.53356939 19.36276484 -8.45684096 18.53472545 -10.0625 16.4765625 C-11.306085 12.74580749 -11.70992657 9.34606552 -11.0625 5.4765625 C-8.05531939 0.96579158 -5.26030565 -0.3785826 0 0 Z " fill="#312526" transform="translate(313.0625,243.5234375)"/>
<path d="M0 0 C3.5 0.625 3.5 0.625 6.4375 2.625 C8.76063857 6.00411065 9.12357987 7.70224265 8.8671875 11.69140625 C8.33724631 14.482054 7.24638934 16.40842892 5.5 18.625 C2.574084 20.087958 0.74382653 20.07023109 -2.5 19.625 C-5.90155525 16.68482591 -8.27858667 13.28559999 -8.875 8.8125 C-8.5 5.625 -8.5 5.625 -6.4375 2.75 C-3.5 0.625 -3.5 0.625 0 0 Z " fill="#3C2B2D" transform="translate(713.5,244.375)"/>
<path d="M0 0 C5.28 0 10.56 0 16 0 C16.07115708 5.33678117 16.05127001 9.74364995 15 15 C9.06 14.67 3.12 14.34 -3 14 C-1.125 2.25 -1.125 2.25 0 0 Z " fill="#958F81" transform="translate(545,610)"/>
<path d="M0 0 C4.29 0 8.58 0 13 0 C12.67 6.27 12.34 12.54 12 19 C8.37 19.33 4.74 19.66 1 20 C0.1173875 15.5869375 -0.11788215 11.63937247 -0.0625 7.1875 C-0.05798828 6.49462891 -0.05347656 5.80175781 -0.04882812 5.08789062 C-0.03713156 3.39188932 -0.01919924 1.69593297 0 0 Z " fill="#DBE2D1" transform="translate(541,455)"/>
<path d="M0 0 C3.74225404 1.1566967 5.28964665 1.79776291 7.4375 5.0625 C8.03427999 9.16536241 7.82675759 11.33069573 5.875 15 C3.4375 17.0625 3.4375 17.0625 0 17.6875 C-4.5021067 16.89765672 -5.94681879 15.78786415 -8.5625 12.0625 C-9.36035988 7.59448469 -9.07984028 5.81499495 -6.5 2.0625 C-3.5625 0.0625 -3.5625 0.0625 0 0 Z " fill="#252020" transform="translate(514.5625,590.9375)"/>
<path d="M0 0 C0.99 0 1.98 0 3 0 C3 0.66 3 1.32 3 2 C4.0725 2.2475 5.145 2.495 6.25 2.75 C10.06462534 4.02154178 11.72812656 4.72850225 14 8 C14.5625 11.0625 14.5625 11.0625 14 14 C11.15250952 16.6749153 9.52443593 17.00971178 5.625 16.9375 C1.45398278 15.85878865 -1.37383361 14.29410527 -5 12 C-4.37343743 7.73937456 -3.1323664 3.1323664 0 0 Z " fill="#4B4241" transform="translate(493,382)"/>
<path d="M0 0 C32.01 0 64.02 0 97 0 C97 17.82 97 35.64 97 54 C96.67 54 96.34 54 96 54 C96 41.79 96 29.58 96 17 C95.34 16.67 94.68 16.34 94 16 C94.33 15.67 94.66 15.34 95 15 C95.07226502 13.14712498 95.0838122 11.29166122 95.0625 9.4375 C95.05347656 8.42558594 95.04445313 7.41367188 95.03515625 6.37109375 C95.02355469 5.58863281 95.01195312 4.80617188 95 4 C94.34 4 93.68 4 93 4 C92.67 4.99 92.34 5.98 92 7 C92.99 7.495 92.99 7.495 94 8 C92.02 8 90.04 8 88 8 C88.33 6.35 88.66 4.7 89 3 C86.69294708 1.84647354 85.35398201 1.87099383 82.7890625 1.8671875 C81.95632813 1.86589844 81.12359375 1.86460937 80.265625 1.86328125 C79.39421875 1.86714844 78.5228125 1.87101563 77.625 1.875 C76.32949219 1.86919922 76.32949219 1.86919922 75.0078125 1.86328125 C73.75484375 1.86521484 73.75484375 1.86521484 72.4765625 1.8671875 C71.3330835 1.86887939 71.3330835 1.86887939 70.16650391 1.87060547 C67.99502536 2.00029711 66.08733046 2.40336595 64 3 C64 2.34 64 1.68 64 1 C62.39504433 1.11442461 60.79101881 1.24194694 59.1875 1.375 C58.29417969 1.44460937 57.40085937 1.51421875 56.48046875 1.5859375 C53.75601501 1.86645036 53.75601501 1.86645036 51 4 C51 3.34 51 2.68 51 2 C34.17 1.67 17.34 1.34 0 1 C0 0.67 0 0.34 0 0 Z " fill="#E0DCC7" transform="translate(927,0)"/>
<path d="M0 0 C0.99 0 1.98 0 3 0 C3.64757625 1.43671568 4.29299453 2.87440416 4.9375 4.3125 C5.29714844 5.11300781 5.65679687 5.91351562 6.02734375 6.73828125 C7 9 7 9 8 12 C10.74211463 13.37105731 12.94042954 13.14051319 16.01101685 13.15821838 C17.29271759 13.1680072 18.57441833 13.17779602 19.8949585 13.18788147 C21.32336388 13.19378606 22.75176966 13.19959648 24.18017578 13.20532227 C25.67799146 13.21489808 27.17580441 13.22490798 28.6736145 13.23532104 C32.74772894 13.26240834 36.82185501 13.28339715 40.89600992 13.30332303 C45.15081825 13.32515904 49.40559057 13.35255937 53.66036987 13.37937927 C61.72095775 13.42933848 69.78156557 13.47426531 77.84219253 13.51740164 C87.0174206 13.56674646 96.19261256 13.62167479 105.36780572 13.67708123 C124.2451703 13.79095081 143.12256894 13.89777899 162 14 C162 14.33 162 14.66 162 15 C110.85 15 59.7 15 7 15 C0 1 0 1 0 0 Z " fill="#C3BBA4" transform="translate(315,543)"/>
<path d="M0 0 C12.66970387 1.92710706 12.66970387 1.92710706 18 4 C18 4.99 18 5.98 18 7 C18.57234375 7.11214844 19.1446875 7.22429688 19.734375 7.33984375 C22.24789112 8.07223034 24.05930543 9.13854853 26.25 10.5625 C26.95640625 11.01753906 27.6628125 11.47257813 28.390625 11.94140625 C28.92171875 12.29074219 29.4528125 12.64007812 30 13 C29.01 13.495 29.01 13.495 28 14 C30.16687491 16.27521866 32.45620509 18.15794162 35 20 C29.72499016 20.44689947 26.82586241 19.17610998 22.3125 16.5 C21.70744629 16.14196289 21.10239258 15.78392578 20.47900391 15.41503906 C13.11860004 10.98525592 5.96951429 6.21709783 0 0 Z " fill="#B5B2A5" transform="translate(382,626)"/>
<path d="M0 0 C0.33 0.66 0.66 1.32 1 2 C-10.83049439 16.8350644 -10.83049439 16.8350644 -15 20 C-15.99 20 -16.98 20 -18 20 C-17.34770292 16.78248969 -16.18534594 14.28349985 -14.5625 11.4375 C-14.13066406 10.67308594 -13.69882812 9.90867187 -13.25390625 9.12109375 C-12.22469183 7.38008618 -11.12186516 5.68279774 -10 4 C-9.34 4 -8.68 4 -8 4 C-8 3.34 -8 2.68 -8 2 C-9.32 1.67 -10.64 1.34 -12 1 C-6.06 0.505 -6.06 0.505 0 0 Z " fill="#BBB9AC" transform="translate(678,590)"/>
<path d="M0 0 C-0.33 0.66 -0.66 1.32 -1 2 C-1.6072139 2.02283554 -2.2144278 2.04567108 -2.84004211 2.06919861 C-9.15032691 2.30737198 -15.46035318 2.55167278 -21.77026367 2.79956055 C-24.12632251 2.89130865 -26.48244309 2.98148526 -28.83862305 3.07006836 C-32.22201657 3.19754204 -35.60514906 3.33063428 -38.98828125 3.46484375 C-40.57277824 3.52272316 -40.57277824 3.52272316 -42.18928528 3.58177185 C-43.66047066 3.64172081 -43.66047066 3.64172081 -45.16137695 3.70288086 C-46.02519485 3.73619003 -46.88901276 3.76949921 -47.77900696 3.80381775 C-50.17246499 3.92886151 -50.17246499 3.92886151 -53 5 C-54.84802969 5.01578603 -56.69696343 4.96681127 -58.54296875 4.87890625 C-59.61611328 4.83056641 -60.68925781 4.78222656 -61.79492188 4.73242188 C-62.91447266 4.67634766 -64.03402344 4.62027344 -65.1875 4.5625 C-66.88422852 4.48418945 -66.88422852 4.48418945 -68.61523438 4.40429688 C-71.4104328 4.27456193 -74.2052794 4.13959359 -77 4 C-77 3.67 -77 3.34 -77 3 C-70.14662213 2.00518001 -63.34311082 1.69839296 -56.42578125 1.46484375 C-55.22495407 1.42186661 -54.02412689 1.37888947 -52.78691101 1.33460999 C-50.25293894 1.24471856 -47.7189044 1.15657311 -45.18481445 1.07006836 C-41.34244017 0.938525 -37.50032673 0.80076174 -33.65820312 0.66210938 C-31.18490888 0.57514905 -28.71160193 0.48854899 -26.23828125 0.40234375 C-25.10554276 0.36173325 -23.97280426 0.32112274 -22.80574036 0.27928162 C-15.20111242 0.02346481 -7.60868451 -0.04525172 0 0 Z " fill="#878A81" transform="translate(501,781)"/>
<path d="M0 0 C29.37 0 58.74 0 89 0 C87.35 1.98 85.7 3.96 84 6 C83.67 6 83.34 6 83 6 C83 4.35 83 2.7 83 1 C55.61 1 28.22 1 0 1 C0 0.67 0 0.34 0 0 Z " fill="#9E9A89" transform="translate(573,610)"/>
<path d="M0 0 C5.0302076 0.52537724 10.01885239 1.10594786 15 2 C15 2.66 15 3.32 15 4 C16.2065625 3.87625 16.2065625 3.87625 17.4375 3.75 C23.53158135 4.17765483 28.61063876 7.29312625 34 10 C34 10.33 34 10.66 34 11 C29.50929936 11.33680255 26.40213429 10.43821674 22.24707031 8.81762695 C17.6711143 7.15260341 12.9059017 6.06566362 8.18359375 4.89453125 C7.41402344 4.69214844 6.64445312 4.48976563 5.8515625 4.28125 C5.15885254 4.10658203 4.46614258 3.93191406 3.75244141 3.75195312 C2 3 2 3 0 0 Z " fill="#DADFD1" transform="translate(416,639)"/>
<path d="M0 0 C0.66 0.33 1.32 0.66 2 1 C0.8073941 5.17412064 -1.01213636 6.98501336 -4.40625 9.60546875 C-7.65162866 12.44517507 -10.07904802 16.15809604 -12 20 C-14.61941217 21.74627478 -16.03824877 22.38722388 -19 23 C-19 23.66 -19 24.32 -19 25 C-19.66 25 -20.32 25 -21 25 C-20.42023718 21.69494839 -19.45960485 20.10388141 -17.05078125 17.79296875 C-16.44943359 17.20580078 -15.84808594 16.61863281 -15.22851562 16.01367188 C-14.59623047 15.41103516 -13.96394531 14.80839844 -13.3125 14.1875 C-8.60186885 9.64528258 -4.19238113 5.02956938 0 0 Z " fill="#C8C3B9" transform="translate(691,601)"/>
<path d="M0 0 C3.90636019 3.38435215 5.77104301 7.10665652 7.9375 11.6875 C8.63245456 13.1218992 9.32906214 14.55549874 10.02734375 15.98828125 C10.36233887 16.67744629 10.69733398 17.36661133 11.04248047 18.07666016 C12.62687095 21.25917627 14.38875249 24.33346641 16.1875 27.3984375 C17 29 17 29 17 31 C17.66 31 18.32 31 19 31 C18.67 32.65 18.34 34.3 18 36 C15.13346428 33.50869296 13.78778186 30.83339754 12.1875 27.4140625 C11.66929687 26.31835938 11.15109375 25.22265625 10.6171875 24.09375 C10.08351563 22.9490625 9.54984375 21.804375 9 20.625 C7.93972058 18.36614385 6.87729553 16.10829332 5.8125 13.8515625 C5.34457031 12.84947754 4.87664063 11.84739258 4.39453125 10.81494141 C3.04397532 7.97202395 3.04397532 7.97202395 1.32421875 5.32177734 C0 3 0 3 0 0 Z " fill="#C5BFBD" transform="translate(713,338)"/>
<path d="M0 0 C6.27 0.66 12.54 1.32 19 2 C15.44221079 5.55778921 10.35290505 5.95168196 5.5 6.125 C4.675 6.08375 3.85 6.0425 3 6 C2.34 7.65 1.68 9.3 1 11 C0.67 11 0.34 11 0 11 C0 7.37 0 3.74 0 0 Z " fill="#F3F2F0" transform="translate(501,434)"/>
<path d="M0 0 C-1.34691064 4.65486735 -3.24719759 8.28957107 -5.9375 12.3125 C-6.62714844 13.36050781 -7.31679688 14.40851562 -8.02734375 15.48828125 C-10 18 -10 18 -13 19 C-12.01761338 15.99389694 -11.0136219 12.99570432 -10 10 C-9.67 9.01 -9.34 8.02 -9 7 C-8 5 -8 5 -5 4 C-4.67 3.01 -4.34 2.02 -4 1 C-2 0 -2 0 0 0 Z " fill="#CCCBBE" transform="translate(701,559)"/>
<path d="M0 0 C1.25748047 -0.00386719 2.51496094 -0.00773438 3.81054688 -0.01171875 C10.030077 -0.00516843 16.04096356 0.15327655 22.1875 1.125 C21.5275 2.115 20.8675 3.105 20.1875 4.125 C19.6925 3.63 19.6925 3.63 19.1875 3.125 C14.01014323 2.75447661 14.01014323 2.75447661 9.1875 4.125 C8.5275 3.465 7.8675 2.805 7.1875 2.125 C4.53458243 1.94989614 1.98763826 1.89344517 -0.6640625 1.9296875 C-1.82511002 1.93393234 -1.82511002 1.93393234 -3.00961304 1.93826294 C-5.48573157 1.94947246 -7.9614905 1.97457797 -10.4375 2 C-12.11457812 2.01002882 -13.79166189 2.01915484 -15.46875 2.02734375 C-19.58347223 2.04941426 -23.69792511 2.08394898 -27.8125 2.125 C-27.8125 1.795 -27.8125 1.465 -27.8125 1.125 C-18.52504176 0.2679965 -9.32441696 -0.02912363 0 0 Z " fill="#D2CFBD" transform="translate(618.8125,-0.12499999999999999)"/>
<path d="M0 0 C0.66 0 1.32 0 2 0 C0.92602367 5.58467693 -1.75715344 9.96181101 -5.4609375 14.2109375 C-7.47361582 16.55054833 -9.38877653 18.96184865 -11.3125 21.375 C-12.35857422 22.68597656 -12.35857422 22.68597656 -13.42578125 24.0234375 C-13.94527344 24.67570313 -14.46476563 25.32796875 -15 26 C-15.33 25.01 -15.66 24.02 -16 23 C-14.55030309 20.85107299 -13.08751608 18.92253156 -11.4375 16.9375 C-7.52683851 12.08272048 -4.1564841 7.21636192 -1.15625 1.73046875 C-0.7746875 1.15941406 -0.393125 0.58835937 0 0 Z " fill="#C3C0B9" transform="translate(711,572)"/>
<path d="M0 0 C0.99 0.495 0.99 0.495 2 1 C2 3.97 2 6.94 2 10 C7.94 10 13.88 10 20 10 C20.33 10.66 20.66 11.32 21 12 C17.68794116 12.19592461 14.37534146 12.38032746 11.0625 12.5625 C9.64420898 12.64661133 9.64420898 12.64661133 8.19726562 12.73242188 C6.84858398 12.80493164 6.84858398 12.80493164 5.47265625 12.87890625 C4.64000244 12.9260376 3.80734863 12.97316895 2.94946289 13.02172852 C1 13 1 13 0 12 C-0.07244053 9.98035801 -0.08377188 7.95832876 -0.0625 5.9375 C-0.05347656 4.83277344 -0.04445313 3.72804688 -0.03515625 2.58984375 C-0.02355469 1.73519531 -0.01195312 0.88054687 0 0 Z " fill="#393836" transform="translate(360,427)"/>
<path d="M0 0 C6.0509304 1.16554807 12.03466226 2.45343096 18 4 C18 4.66 18 5.32 18 6 C18.66 6.33 19.32 6.66 20 7 C12.37256022 7.12927864 6.95592374 6.13698522 0 3 C0 2.01 0 1.02 0 0 Z " fill="#98978C" transform="translate(431,647)"/>
<path d="M0 0 C3.63 0 7.26 0 11 0 C11 0.33 11 0.66 11 1 C8.03 1 5.06 1 2 1 C2.33 6.28 2.66 11.56 3 17 C6.96 17 10.92 17 15 17 C15 17.33 15 17.66 15 18 C10.05 18 5.1 18 0 18 C0 12.06 0 6.12 0 0 Z " fill="#E6E6D5" transform="translate(561,558)"/>
<path d="M0 0 C0.99 0.495 0.99 0.495 2 1 C1.67 2.98 1.34 4.96 1 7 C1.66 7.33 2.32 7.66 3 8 C3.33 8.66 3.66 9.32 4 10 C3.34 10 2.68 10 2 10 C2.99 12.31 3.98 14.62 5 17 C4.01 17 3.02 17 2 17 C2 17.66 2 18.32 2 19 C2.66 19 3.32 19 4 19 C2.25 22.875 2.25 22.875 0 24 C0 16.08 0 8.16 0 0 Z " fill="#B0B1A7" transform="translate(1,999)"/>
<path d="M0 0 C0.33 0 0.66 0 1 0 C1.65655389 8.68761489 2.16311941 17.28217363 2 26 C1.01 26 0.02 26 -1 26 C-2.29449495 22.11651516 -2.13203312 19.09302664 -2 15 C-1.67 14.67 -1.34 14.34 -1 14 C-0.76472227 11.65012738 -0.58613583 9.29443961 -0.4375 6.9375 C-0.35371094 5.64714844 -0.26992188 4.35679687 -0.18359375 3.02734375 C-0.12300781 2.02832031 -0.06242188 1.02929688 0 0 Z " fill="#F4F5F8" transform="translate(523,441)"/>
<path d="M0 0 C0.33 0 0.66 0 1 0 C1.05898369 3.45825936 1.09392131 6.9163862 1.125 10.375 C1.14175781 11.34050781 1.15851562 12.30601562 1.17578125 13.30078125 C1.21924836 19.77738043 0.53232671 25.706577 -1 32 C-1.33 31.01 -1.66 30.02 -2 29 C-2.66 28.67 -3.32 28.34 -4 28 C-3.68305176 27.28884033 -3.36610352 26.57768066 -3.03955078 25.8449707 C-1.9798655 22.94489728 -1.60721422 20.54938182 -1.3671875 17.48046875 C-1.28339844 16.45888672 -1.19960938 15.43730469 -1.11328125 14.38476562 C-1.03464844 13.32966797 -0.95601562 12.27457031 -0.875 11.1875 C-0.78863281 10.11306641 -0.70226562 9.03863281 -0.61328125 7.93164062 C-0.40180869 5.28823357 -0.19762846 2.64447211 0 0 Z " fill="#EDE6EB" transform="translate(564,350)"/>
<path d="M0 0 C1.65 0 3.3 0 5 0 C5 0.66 5 1.32 5 2 C2.08997166 3.51314319 -0.829009 5.00814417 -3.75 6.5 C-4.575 6.92925781 -5.4 7.35851562 -6.25 7.80078125 C-7.04921875 8.20683594 -7.8484375 8.61289062 -8.671875 9.03125 C-9.4050293 9.40830078 -10.13818359 9.78535156 -10.89355469 10.17382812 C-13 11 -13 11 -17 11 C-16.67 10.01 -16.34 9.02 -16 8 C-14.14453125 7.12109375 -14.14453125 7.12109375 -11.8125 6.4375 C-11.00425781 6.18871094 -10.19601562 5.93992187 -9.36328125 5.68359375 C-7.40995343 5.11858157 -5.45516581 4.5586188 -3.5 4 C-2.675 3.67 -1.85 3.34 -1 3 C-0.67 2.01 -0.34 1.02 0 0 Z " fill="#A8A8A0" transform="translate(613,642)"/>
<path d="M0 0 C1.98 0.66 3.96 1.32 6 2 C6.33 3.98 6.66 5.96 7 8 C5.02 8.99 5.02 8.99 3 10 C0 8 0 8 -0.75 4.4375 C-0.8325 3.303125 -0.915 2.16875 -1 1 C-0.67 0.67 -0.34 0.34 0 0 Z " fill="#B6B4A5" transform="translate(919,981)"/>
<path d="M0 0 C1.134375 0.020625 2.26875 0.04125 3.4375 0.0625 C3.4375 0.7225 3.4375 1.3825 3.4375 2.0625 C0.19255307 3.0998997 -3.05909404 4.11447239 -6.3125 5.125 C-7.23289062 5.41955078 -8.15328125 5.71410156 -9.1015625 6.01757812 C-9.99101563 6.29150391 -10.88046875 6.56542969 -11.796875 6.84765625 C-13.02229004 7.23256226 -13.02229004 7.23256226 -14.27246094 7.62524414 C-16.74118071 8.09661697 -18.2044054 7.86036936 -20.5625 7.0625 C-19.4075 6.629375 -18.2525 6.19625 -17.0625 5.75 C-16.33933594 5.47800781 -15.61617187 5.20601562 -14.87109375 4.92578125 C-13.34457667 4.35495168 -11.81594407 3.78974458 -10.28515625 3.23046875 C-1.5594425 0.02735864 -1.5594425 0.02735864 0 0 Z " fill="#A9AB9E" transform="translate(584.5625,655.9375)"/>
<path d="M0 0 C0.33 0.66 0.66 1.32 1 2 C-0.28419041 3.67243402 -1.57757185 5.33781447 -2.875 7 C-3.59429687 7.928125 -4.31359375 8.85625 -5.0546875 9.8125 C-5.69664062 10.534375 -6.33859375 11.25625 -7 12 C-7.66 12 -8.32 12 -9 12 C-8.39344262 5.5704918 -8.39344262 5.5704918 -6.75 3.1875 C-4.60762054 1.73374251 -2.43691501 0.85621338 0 0 Z " fill="#543A47" transform="translate(488,327)"/>
<path d="M0 0 C0 0.66 0 1.32 0 2 C-2.55885226 3.01031065 -5.12140376 4.00840145 -7.6875 5 C-8.40873047 5.28617188 -9.12996094 5.57234375 -9.87304688 5.8671875 C-13.71040321 7.3390502 -16.81566589 8.39614998 -21 8 C-21 7.34 -21 6.68 -21 6 C-16.8794254 4.00214565 -13.54805635 3.82164485 -9 4 C-9 3.34 -9 2.68 -9 2 C-2.25 0 -2.25 0 0 0 Z " fill="#D8DACB" transform="translate(605,640)"/>
<path d="M0 0 C0.66 0.66 1.32 1.32 2 2 C-0.97 4.64 -3.94 7.28 -7 10 C-9.475 9.01 -9.475 9.01 -12 8 C-12 7.34 -12 6.68 -12 6 C-8.7 4.68 -5.4 3.36 -2 2 C-2.66 1.67 -3.32 1.34 -4 1 C-2.125 0.375 -2.125 0.375 0 0 Z " fill="#A19C8B" transform="translate(652,616)"/>
<path d="M0 0 C-0.53115106 4.51478398 -2.36620292 7.34666857 -5 11 C-5.33 9.68 -5.66 8.36 -6 7 C-7.32 7 -8.64 7 -10 7 C-10 6.34 -10 5.68 -10 5 C-8.3203125 3.7109375 -8.3203125 3.7109375 -6.125 2.375 C-5.40570313 1.92898438 -4.68640625 1.48296875 -3.9453125 1.0234375 C-2 0 -2 0 0 0 Z " fill="#D1CDC8" transform="translate(458,314)"/>
<path d="M0 0 C0.99 0 1.98 0 3 0 C3.64757625 1.43671568 4.29299453 2.87440416 4.9375 4.3125 C5.29714844 5.11300781 5.65679687 5.91351562 6.02734375 6.73828125 C7 9 7 9 8 12 C10.10584438 12.80563638 10.10584438 12.80563638 12.5625 13.1875 C13.38878906 13.34605469 14.21507812 13.50460937 15.06640625 13.66796875 C15.70449219 13.77753906 16.34257812 13.88710938 17 14 C17 14.33 17 14.66 17 15 C13.7 15 10.4 15 7 15 C5.83092416 12.68868934 4.66464108 10.37604377 3.5 8.0625 C3.16613281 7.40314453 2.83226562 6.74378906 2.48828125 6.06445312 C0 1.11328125 0 1.11328125 0 0 Z " fill="#C4BCB1" transform="translate(315,543)"/>
<path d="M0 0 C1.078125 1.81640625 1.078125 1.81640625 2 4 C0.75 6.9375 0.75 6.9375 -1 10 C-1.350625 10.928125 -1.70125 11.85625 -2.0625 12.8125 C-3 15 -3 15 -5 16 C-4.55643705 9.79011871 -3.08467498 5.39459439 0 0 Z " fill="#BFBEBA" transform="translate(730,534)"/>
<path d="M0 0 C0.99 0.33 1.98 0.66 3 1 C2.67 1.99 2.34 2.98 2 4 C5.465 3.505 5.465 3.505 9 3 C4.09731431 6.26845713 -0.13173703 7.27944109 -6 7 C-5.01 6.34 -4.02 5.68 -3 5 C-3 4.01 -3 3.02 -3 2 C-2.01 1.34 -1.02 0.68 0 0 Z " fill="#C9C5B7" transform="translate(453,227)"/>
<path d="M0 0 C4.71403788 0.47939368 8.66579301 0.96834048 13 3 C13 3.66 13 4.32 13 5 C4.2404908 5.44539877 4.2404908 5.44539877 0 2 C0 1.34 0 0.68 0 0 Z " fill="#999A8C" transform="translate(410,640)"/>
<path d="M0 0 C0.33 0 0.66 0 1 0 C1.05847045 3.85410207 1.09375405 7.70808865 1.125 11.5625 C1.14175781 12.64853516 1.15851562 13.73457031 1.17578125 14.85351562 C1.21098659 20.64479442 0.98923674 25.54134642 -1 31 C-2.125 29.375 -2.125 29.375 -3 27 C-2.7009375 26.1853125 -2.401875 25.370625 -2.09375 24.53125 C-0.60738059 19.73240019 -0.5375029 15.12196431 -0.375 10.125 C-0.33632813 9.15046875 -0.29765625 8.1759375 -0.2578125 7.171875 C-0.16406967 4.7814328 -0.0783617 2.39098756 0 0 Z " fill="#1D120F" transform="translate(543,592)"/>
<path d="M0 0 C0.66 0 1.32 0 2 0 C0.64746536 6.45054982 -1.03060233 12.71105679 -3 19 C-3.66 18.67 -4.32 18.34 -5 18 C-4.67 15.36 -4.34 12.72 -4 10 C-3.34 10 -2.68 10 -2 10 C-1.93941406 9.36191406 -1.87882812 8.72382813 -1.81640625 8.06640625 C-1.73261719 7.24011719 -1.64882813 6.41382813 -1.5625 5.5625 C-1.48128906 4.73878906 -1.40007812 3.91507812 -1.31640625 3.06640625 C-1 1 -1 1 0 0 Z " fill="#2F3E2E" transform="translate(305,382)"/>
<path d="M0 0 C3.22909006 -0.05834353 6.45804338 -0.09371115 9.6875 -0.125 C10.59951172 -0.14175781 11.51152344 -0.15851563 12.45117188 -0.17578125 C17.06848227 -0.20936169 20.81932331 -0.23556185 25 2 C25 2.66 25 3.32 25 4 C22.69 4 20.38 4 18 4 C18 3.34 18 2.68 18 2 C12.06 1.67 6.12 1.34 0 1 C0 0.67 0 0.34 0 0 Z " fill="#29211F" transform="translate(509,284)"/>
<path d="M0 0 C0.66 0 1.32 0 2 0 C0.68 6.36 0.68 6.36 -2.125 9 C-6.13529461 10.39488508 -8.84508334 9.77464548 -13 9 C-13 8.67 -13 8.34 -13 8 C-11.96875 7.979375 -10.9375 7.95875 -9.875 7.9375 C-5.20212907 6.80696671 -4.01131762 5.2400681 -1.26171875 1.49609375 C-0.84535156 1.00238281 -0.42898438 0.50867188 0 0 Z " fill="#C8C7C2" transform="translate(792,454)"/>
<path d="M0 0 C0.99 0 1.98 0 3 0 C3 1.32 3 2.64 3 4 C4.98 3.01 6.96 2.02 9 1 C8.67 2.65 8.34 4.3 8 6 C4.04 5.67 0.08 5.34 -4 5 C-4 4.34 -4 3.68 -4 3 C-2.68 2.34 -1.36 1.68 0 1 C0 0.67 0 0.34 0 0 Z " fill="#B2B0A2" transform="translate(28,979)"/>
<path d="M0 0 C2.0625 0.6875 2.0625 0.6875 5 2 C5.76828125 2.33902344 6.5365625 2.67804687 7.328125 3.02734375 C9.55523886 4.01133588 11.77865924 5.0030584 14 6 C10.11764181 7.49828872 7.56550712 6.43110582 3.75 5.0625 C2.67234375 4.68222656 1.5946875 4.30195312 0.484375 3.91015625 C-0.33546875 3.60980469 -1.1553125 3.30945313 -2 3 C-2 2.34 -2 1.68 -2 1 C-1.34 0.67 -0.68 0.34 0 0 Z " fill="#A7A9A0" transform="translate(438,654)"/>
<path d="M0 0 C0.66 0 1.32 0 2 0 C2 0.66 2 1.32 2 2 C1.34 2 0.68 2 0 2 C0 3.32 0 4.64 0 6 C-2.43794709 8.99519213 -4.06806959 10.73077566 -7.8125 11.8125 C-8.534375 11.874375 -9.25625 11.93625 -10 12 C-9.61328125 11.55269531 -9.2265625 11.10539063 -8.828125 10.64453125 C-8.30734375 10.03996094 -7.7865625 9.43539062 -7.25 8.8125 C-6.7034375 8.17828125 -6.156875 7.5440625 -5.59375 6.890625 C-4.26789342 5.31779514 -3.00087924 3.69559234 -1.75 2.0625 C-1.1725 1.381875 -0.595 0.70125 0 0 Z " fill="#B5B1AA" transform="translate(542,624)"/>
<path d="M0 0 C3.3 0 6.6 0 10 0 C9.67 0.99 9.34 1.98 9 3 C8.01 3 7.02 3 6 3 C6 3.66 6 4.32 6 5 C3.7272325 6.49524178 1.4320057 7.78399715 -1 9 C0 7 1 5 2 3 C2.66 3 3.32 3 4 3 C4 2.34 4 1.68 4 1 C2.68 0.67 1.36 0.34 0 0 Z " fill="#C5C3B0" transform="translate(666,591)"/>
<path d="M0 0 C2.00720923 0.28674418 4.0085944 0.61866701 6 1 C5.67 1.66 5.34 2.32 5 3 C5.39938767 5.09821215 5.39938767 5.09821215 6 7 C5.01 6.67 4.02 6.34 3 6 C2.67 6.66 2.34 7.32 2 8 C2 7.34 2 6.68 2 6 C1.01 6 0.02 6 -1 6 C-1.042721 4.33388095 -1.04063832 2.66617115 -1 1 C-0.67 0.67 -0.34 0.34 0 0 Z " fill="#B6B4A5" transform="translate(2,402)"/>
<path d="M0 0 C0.99 0.33 1.98 0.66 3 1 C-0.3 4.63 -3.6 8.26 -7 12 C-9 9 -9 9 -9 7 C-7.35 6.67 -5.7 6.34 -4 6 C-4 5.34 -4 4.68 -4 4 C-3.01 4 -2.02 4 -1 4 C-0.67 2.68 -0.34 1.36 0 0 Z " fill="#CBC6BB" transform="translate(344,294)"/>
<path d="M0 0 C0 1.98 0 3.96 0 6 C-2.64 6.33 -5.28 6.66 -8 7 C-8 6.01 -8 5.02 -8 4 C-7.34 4 -6.68 4 -6 4 C-6 3.34 -6 2.68 -6 2 C-2.25 0 -2.25 0 0 0 Z " fill="#C8C5B1" transform="translate(1023,384)"/>
<path d="M0 0 C0.66 0.33 1.32 0.66 2 1 C0.56874399 4.91448518 -1.27511292 8.29133338 -3.5 11.8125 C-4.1084375 12.78832031 -4.716875 13.76414062 -5.34375 14.76953125 C-6.16359375 15.87361328 -6.16359375 15.87361328 -7 17 C-7.66 17 -8.32 17 -9 17 C-5.79704797 8.76383764 -5.79704797 8.76383764 -3.5 6.5625 C-1.60096688 4.5843405 -0.90100969 2.56441218 0 0 Z " fill="#CAC3BB" transform="translate(319,324)"/>
<path d="M0 0 C1.2065625 0.0309375 1.2065625 0.0309375 2.4375 0.0625 C2.1075 1.3825 1.7775 2.7025 1.4375 4.0625 C0.7775 4.0625 0.1175 4.0625 -0.5625 4.0625 C-0.8925 5.0525 -1.2225 6.0425 -1.5625 7.0625 C-0.9025 7.3925 -0.2425 7.7225 0.4375 8.0625 C-1.5425 8.0625 -3.5225 8.0625 -5.5625 8.0625 C-3.38616071 0.08258929 -3.38616071 0.08258929 0 0 Z " fill="#D2CEB9" transform="translate(1020.5625,-0.0625)"/>
<path d="M0 0 C6.57791873 0.41044485 12.74051886 0.86608597 19 3 C19 3.33 19 3.66 19 4 C12.1781317 4.38614349 6.50422293 3.00865708 0 1 C0 0.67 0 0.34 0 0 Z " fill="#332623" transform="translate(470,668)"/>
<path d="M0 0 C-1.25805377 4.50802601 -2.90407165 7.4912812 -6 11 C-6 10.34 -6 9.68 -6 9 C-6.66 8.67 -7.32 8.34 -8 8 C-7.67 7.01 -7.34 6.02 -7 5 C-6.34 4.67 -5.68 4.34 -5 4 C-4.67 3.01 -4.34 2.02 -4 1 C-2 0 -2 0 0 0 Z " fill="#C0BFB1" transform="translate(701,559)"/>
<path d="M0 0 C3.60654039 2.40436026 3.85452932 3.94679607 5 8 C5.66 8 6.32 8 7 8 C6.67 9.65 6.34 11.3 6 13 C2.67467889 10.30807339 1.47545057 6.93453485 0 3 C0 2.01 0 1.02 0 0 Z " fill="#CECAC6" transform="translate(725,361)"/>
<path d="M0 0 C-1.4258086 3.45195767 -3.09746334 5.1014256 -6.125 7.25 C-7.21167969 8.03117188 -7.21167969 8.03117188 -8.3203125 8.828125 C-8.87460937 9.21484375 -9.42890625 9.6015625 -10 10 C-10 7 -10 7 -8.3203125 5.17578125 C-7.59585938 4.56089844 -6.87140625 3.94601562 -6.125 3.3125 C-5.40570312 2.68988281 -4.68640625 2.06726563 -3.9453125 1.42578125 C-2 0 -2 0 0 0 Z " fill="#CCC8BF" transform="translate(669,626)"/>
<path d="M0 0 C0.66 0 1.32 0 2 0 C1.29057322 3.68901928 -0.10127418 6.7651338 -2 10 C-4.1875 11.375 -4.1875 11.375 -6 12 C-4.68448876 7.39571066 -2.90803514 3.81679612 0 0 Z " fill="#CBC9C0" transform="translate(711,572)"/>
<path d="M0 0 C0.66 0.33 1.32 0.66 2 1 C1.54625 1.7425 1.0925 2.485 0.625 3.25 C-1.36655387 6.53817412 -1.36655387 6.53817412 -3 10 C-2.67 10.99 -2.34 11.98 -2 13 C-2.99 13 -3.98 13 -5 13 C-5.602537 6.97463002 -5.602537 6.97463002 -3.88671875 4.19921875 C-2.65378147 2.74400545 -1.33191067 1.36520843 0 0 Z " fill="#110B0C" transform="translate(235,442)"/>
<path d="M0 0 C2.96404505 2.80804268 5.44499019 5.18315774 7 9 C4.525 8.01 4.525 8.01 2 7 C2 6.34 2 5.68 2 5 C1.01 5 0.02 5 -1 5 C-1.66 3.68 -2.32 2.36 -3 1 C-2.01 0.67 -1.02 0.34 0 0 Z M-3 5 C-1 6 -1 6 -1 6 Z " fill="#39363B" transform="translate(494,377)"/>
<path d="M0 0 C0.99 0.33 1.98 0.66 3 1 C1.12050295 4.57104439 -0.17053157 6.54744301 -4 8 C-4.33 7.34 -4.66 6.68 -5 6 C-3.35 4.02 -1.7 2.04 0 0 Z " fill="#EDEACE" transform="translate(497,336)"/>
<path d="M0 0 C0.99 0.33 1.98 0.66 3 1 C2.67 2.65 2.34 4.3 2 6 C-1.01031744 6.93423645 -1.86650268 7.04449911 -5 6 C-3.35 4.02 -1.7 2.04 0 0 Z " fill="#482C39" transform="translate(489,322)"/>
<path d="M0 0 C1.485 0.99 1.485 0.99 3 2 C2.34 2 1.68 2 1 2 C1.99 4.31 2.98 6.62 4 9 C3.01 9 2.02 9 1 9 C1 9.66 1 10.32 1 11 C1.66 11 2.32 11 3 11 C2.34 12.32 1.68 13.64 1 15 C0.67 15 0.34 15 0 15 C0 10.05 0 5.1 0 0 Z " fill="#A6A69C" transform="translate(2,1007)"/>
<path d="M0 0 C3.7758544 0.52442422 6.22372155 1.32654667 9 4 C9 4.99 9 5.98 9 7 C5.625 6.3125 5.625 6.3125 2 5 C0.5625 2.375 0.5625 2.375 0 0 Z " fill="#281F25" transform="translate(478,407)"/>
<path d="M0 0 C4.455 0.99 4.455 0.99 9 2 C9.33 3.98 9.66 5.96 10 8 C6.25718301 5.61820737 3.02272532 3.25524265 0 0 Z " fill="#ACA79B" transform="translate(382,626)"/>
<path d="M0 0 C0.33 0.66 0.66 1.32 1 2 C-1.31 2.33 -3.62 2.66 -6 3 C-6.66 4.65 -7.32 6.3 -8 8 C-8.66 7.67 -9.32 7.34 -10 7 C-8.07091409 1.3611335 -6.01450566 -0.32510841 0 0 Z " fill="#2A2729" transform="translate(516,591)"/>
<path d="M0 0 C1.32 0 2.64 0 4 0 C4 0.66 4 1.32 4 2 C6.97 2 9.94 2 13 2 C13 2.33 13 2.66 13 3 C6.73 3 0.46 3 -6 3 C-6 2.67 -6 2.34 -6 2 C-4.02 2 -2.04 2 0 2 C0 1.34 0 0.68 0 0 Z " fill="#ABAD9E" transform="translate(22,1020)"/>
<path d="M0 0 C0.99 0.33 1.98 0.66 3 1 C2.67 1.33 2.34 1.66 2 2 C1.82451729 6.47480899 2.14309068 10.60833973 3 15 C2.01 15 1.02 15 0 15 C0 10.05 0 5.1 0 0 Z " fill="#B2B1A6" transform="translate(1,688)"/>
<path d="M0 0 C0.99 0 1.98 0 3 0 C1.69386058 3.91841827 0.16870152 6.32640809 -3 9 C-3.66 9 -4.32 9 -5 9 C-3.49901406 5.88256767 -1.97568178 2.84498177 0 0 Z " fill="#261A18" transform="translate(538,624)"/>
<path d="M0 0 C0.33 0 0.66 0 1 0 C1.22201613 2.9162118 1.42808498 5.83207744 1.625 8.75 C1.68945312 9.575 1.75390625 10.4 1.8203125 11.25 C1.871875 12.04921875 1.9234375 12.8484375 1.9765625 13.671875 C2.02893066 14.4050293 2.08129883 15.13818359 2.13525391 15.89355469 C1.97767085 18.34775441 1.22264839 19.88853213 0 22 C-0.33 22 -0.66 22 -1 22 C-0.67 14.74 -0.34 7.48 0 0 Z " fill="#2C1725" transform="translate(485,455)"/>
<path d="M0 0 C4.82675589 2.41337795 7.69984002 5.86062408 11 10 C10.01 10 9.02 10 8 10 C8 9.34 8 8.68 8 8 C6.68 7.34 5.36 6.68 4 6 C4 5.34 4 4.68 4 4 C2.68 3.34 1.36 2.68 0 2 C0 1.34 0 0.68 0 0 Z " fill="#C6C0B9" transform="translate(620,347)"/>
<path d="M0 0 C-2.3125 2.5 -2.3125 2.5 -5 5 C-5.99 5 -6.98 5 -8 5 C-8 5.66 -8 6.32 -8 7 C-8.66 7 -9.32 7 -10 7 C-10 6.01 -10 5.02 -10 4 C-8.57421875 2.578125 -8.57421875 2.578125 -6.6875 1.25 C-6.07261719 0.80140625 -5.45773437 0.3528125 -4.82421875 -0.109375 C-3 -1 -3 -1 0 0 Z " fill="#C8C4BC" transform="translate(425,335)"/>
<path d="M0 0 C0.99 0.33 1.98 0.66 3 1 C3.33 2.98 3.66 4.96 4 7 C2.02 7.99 2.02 7.99 0 9 C0 6.03 0 3.06 0 0 Z " fill="#B2B0A4" transform="translate(1,773)"/>
<path d="M0 0 C-1.43605193 3.38818502 -3.20466579 5.3186598 -6 7.6875 C-6.70125 8.28949219 -7.4025 8.89148438 -8.125 9.51171875 C-10 11 -10 11 -12 12 C-10.53033642 8.60140297 -8.61962486 6.35036291 -6 3.75 C-5.29875 3.04359375 -4.5975 2.3371875 -3.875 1.609375 C-2 0 -2 0 0 0 Z " fill="#2C2321" transform="translate(360,284)"/>
<path d="M0 0 C0.33 0 0.66 0 1 0 C1.32136655 4.60625394 0.91033076 7.33513904 -2 11 C-2.99 11 -3.98 11 -5 11 C-5 10.34 -5 9.68 -5 9 C-4.34 9 -3.68 9 -3 9 C-3 8.01 -3 7.02 -3 6 C-2.34 6 -1.68 6 -1 6 C-1.020625 5.195625 -1.04125 4.39125 -1.0625 3.5625 C-1 1 -1 1 0 0 Z " fill="#312522" transform="translate(721,252)"/>
<path d="M0 0 C0.66 0.33 1.32 0.66 2 1 C0.71520959 2.50589388 -0.57804082 4.00457375 -1.875 5.5 C-2.95394531 6.75296875 -2.95394531 6.75296875 -4.0546875 8.03125 C-4.69664062 8.6809375 -5.33859375 9.330625 -6 10 C-6.66 10 -7.32 10 -8 10 C-8 7 -8 7 -6.25 5.17578125 C-5.5075 4.56089844 -4.765 3.94601562 -4 3.3125 C-3.2575 2.68988281 -2.515 2.06726563 -1.75 1.42578125 C-1.1725 0.95527344 -0.595 0.48476563 0 0 Z " fill="#D7D7C6" transform="translate(554,636)"/>
<path d="M0 0 C-0.165 0.515625 -0.33 1.03125 -0.5 1.5625 C-1.38504441 5.87709151 -1.39291284 9.82126148 0 14 C-0.66 14 -1.32 14 -2 14 C-4.57829164 10.20839464 -3.72604511 7.35627067 -3 3 C-3.33 2.34 -3.66 1.68 -4 1 C-2 0 -2 0 0 0 Z " fill="#CCC8BE" transform="translate(232,444)"/>
<path d="M0 0 C0.99 0 1.98 0 3 0 C1.68938409 4.23429756 0.05643741 8.07407404 -2 12 C-3.15957207 8.52128379 -2.77456651 7.65780355 -1.5625 4.3125 C-1.13130859 3.10013672 -1.13130859 3.10013672 -0.69140625 1.86328125 C-0.46324219 1.24839844 -0.23507812 0.63351562 0 0 Z " fill="#E7E2E4" transform="translate(559,384)"/>
<path d="M0 0 C2.64752004 2.57784846 4.94432065 4.91648098 7 8 C6.625 10.1875 6.625 10.1875 6 12 C4.99466333 10.37829621 3.99588093 8.75252763 3 7.125 C2.443125 6.22007812 1.88625 5.31515625 1.3125 4.3828125 C0 2 0 2 0 0 Z " fill="#2C2327" transform="translate(708,334)"/>
<path d="M0 0 C6.24675325 6.07792208 6.24675325 6.07792208 8 9 C7.67 9.99 7.34 10.98 7 12 C3.46730171 8.09543873 1.36144033 5.19822672 0 0 Z " fill="#2D2323" transform="translate(694,314)"/>
<path d="M0 0 C0.66 0 1.32 0 2 0 C2 1.32 2 2.64 2 4 C2.66 4.33 3.32 4.66 4 5 C3.01 5 2.02 5 1 5 C1.66 7.64 2.32 10.28 3 13 C2.01 12.67 1.02 12.34 0 12 C0 8.04 0 4.08 0 0 Z " fill="#B8B6A5" transform="translate(1,198)"/>
<path d="M0 0 C0.33 0.99 0.66 1.98 1 3 C1.66 3.33 2.32 3.66 3 4 C1.8125 5.5625 1.8125 5.5625 0 7 C-2.6875 6.6875 -2.6875 6.6875 -5 6 C-3.35 4.02 -1.7 2.04 0 0 Z " fill="#B8B6A6" transform="translate(879,988)"/>
<path d="M0 0 C0 0.66 0 1.32 0 2 C-2.64846603 4.36214538 -4.61516396 5.87172132 -8 7 C-8.33 6.01 -8.66 5.02 -9 4 C-2.25 0 -2.25 0 0 0 Z " fill="#C9C6BE" transform="translate(640,649)"/>
<path d="M0 0 C0 0.66 0 1.32 0 2 C-2.1875 4.1875 -2.1875 4.1875 -5 6 C-7.8125 5.75 -7.8125 5.75 -10 5 C-3.63636364 0 -3.63636364 0 0 0 Z " fill="#3D3532" transform="translate(614,646)"/>
<path d="M0 0 C0.33 0.66 0.66 1.32 1 2 C-0.61594832 4.04119788 -2.2856382 6.04072937 -4 8 C-4.66 8 -5.32 8 -6 8 C-6 6.68 -6 5.36 -6 4 C-5.01 4 -4.02 4 -3 4 C-2.67 3.01 -2.34 2.02 -2 1 C-1.34 0.67 -0.68 0.34 0 0 Z " fill="#B2B0A5" transform="translate(678,590)"/>
<path d="M0 0 C0.66 0.99 1.32 1.98 2 3 C1.34 3 0.68 3 0 3 C0.061875 4.1446875 0.061875 4.1446875 0.125 5.3125 C0 8 0 8 -2 11 C-2.66 11 -3.32 11 -4 11 C-3.39301257 6.87248551 -1.96189209 3.6678852 0 0 Z " fill="#292020" transform="translate(718,525)"/>
<path d="M0 0 C0.33 0 0.66 0 1 0 C0.67 3.96 0.34 7.92 0 12 C-0.99 11.01 -1.98 10.02 -3 9 C-2.6828368 5.828368 -1.22070812 2.92969949 0 0 Z " fill="#312622" transform="translate(363,418)"/>
<path d="M0 0 C0.33 0 0.66 0 1 0 C1 2.31 1 4.62 1 7 C0.01 7.33 -0.98 7.66 -2 8 C-2.99 7.01 -3.98 6.02 -5 5 C-4.67 4.34 -4.34 3.68 -4 3 C-1.9375 2.375 -1.9375 2.375 0 2 C0 1.34 0 0.68 0 0 Z " fill="#C8C5AF" transform="translate(1022,417)"/>
<path d="M0 0 C1.25127906 3.54667178 0.72285053 5.72253438 -0.4375 9.25 C-0.72496094 10.14203125 -1.01242187 11.0340625 -1.30859375 11.953125 C-1.53675781 12.62859375 -1.76492188 13.3040625 -2 14 C-4 11 -4 11 -3.57421875 8.80859375 C-3.28160156 8.02613281 -2.98898437 7.24367188 -2.6875 6.4375 C-2.40261719 5.65246094 -2.11773438 4.86742187 -1.82421875 4.05859375 C-1 2 -1 2 0 0 Z " fill="#3D493A" transform="translate(578,376)"/>
<path d="M0 0 C-1 2 -1 2 -4 4 C-6.1875 4.625 -6.1875 4.625 -8 5 C-8 5.66 -8 6.32 -8 7 C-8.66 7 -9.32 7 -10 7 C-9.875 5.1875 -9.875 5.1875 -9 3 C-5.79116175 1.04679411 -3.7794561 0 0 0 Z " fill="#CCC9BE" transform="translate(680,619)"/>
<path d="M0 0 C1.14926266 0.95421808 2.29430541 1.91352045 3.4375 2.875 C4.07558594 3.40867187 4.71367187 3.94234375 5.37109375 4.4921875 C7 6 7 6 8 8 C5.6875 7.8125 5.6875 7.8125 3 7 C0 2.96551724 0 2.96551724 0 0 Z " fill="#231A23" transform="translate(498,616)"/>
<path d="M0 0 C1.65 0.33 3.3 0.66 5 1 C4.67 2.32 4.34 3.64 4 5 C3.34 5 2.68 5 2 5 C2 5.66 2 6.32 2 7 C1.01 6.67 0.02 6.34 -1 6 C-0.67 4.02 -0.34 2.04 0 0 Z " fill="#C7C3B2" transform="translate(458,121)"/>
<path d="M0 0 C0.99 0.33 1.98 0.66 3 1 C2.01 3.31 1.02 5.62 0 8 C-0.99 7.34 -1.98 6.68 -3 6 C-3 4 -3 4 -1 2 C-0.67 1.34 -0.34 0.68 0 0 Z " fill="#B2B0A0" transform="translate(22,923)"/>
<path d="M0 0 C2.97 0 5.94 0 9 0 C9.33 0.99 9.66 1.98 10 3 C6.14354879 3.22036864 3.50776784 2.60355101 0 1 C0 0.67 0 0.34 0 0 Z " fill="#ADAEA5" transform="translate(426,651)"/>
<path d="M0 0 C0.33 0 0.66 0 1 0 C1 4.62 1 9.24 1 14 C-2 10 -2 10 -1.85546875 7.421875 C-1.63503906 6.54015625 -1.41460938 5.6584375 -1.1875 4.75 C-0.97480469 3.85796875 -0.76210938 2.9659375 -0.54296875 2.046875 C-0.36378906 1.37140625 -0.18460938 0.6959375 0 0 Z " fill="#A9A1A0" transform="translate(726,478)"/>
<path d="M0 0 C0.66 0 1.32 0 2 0 C0.33248852 3.94139078 -2.22710649 6.7892812 -5 10 C-5 6.40142046 -4.04169485 4.90548882 -2 2 C-1.34 2 -0.68 2 0 2 C0 1.34 0 0.68 0 0 Z " fill="#CEC9BF" transform="translate(333,307)"/>
<path d="M0 0 C0.66 0.33 1.32 0.66 2 1 C1.34 1.66 0.68 2.32 0 3 C-0.309375 3.845625 -0.61875 4.69125 -0.9375 5.5625 C-1.288125 6.366875 -1.63875 7.17125 -2 8 C-2.99 8.33 -3.98 8.66 -5 9 C-5 5 -5 5 -2.5 2.25 C-1.675 1.5075 -0.85 0.765 0 0 Z " fill="#ECECDB" transform="translate(385,280)"/>
<path d="M0 0 C0.33 1.32 0.66 2.64 1 4 C0.360625 4.103125 -0.27875 4.20625 -0.9375 4.3125 C-1.618125 4.539375 -2.29875 4.76625 -3 5 C-3.33 5.99 -3.66 6.98 -4 8 C-4.33 6.35 -4.66 4.7 -5 3 C-3.35 2.01 -1.7 1.02 0 0 Z " fill="#B7B5A6" transform="translate(63,895)"/>
<path d="M0 0 C5.05255964 0.63156995 9.29593201 2.13459373 14 4 C9.99128491 5.33623836 7.93947102 4.38227053 4 3 C1.5625 1.375 1.5625 1.375 0 0 Z " fill="#B5B8AB" transform="translate(430,645)"/>
<path d="M0 0 C0.33 0.99 0.66 1.98 1 3 C0.01 4.485 0.01 4.485 -1 6 C-3.3828125 6.29296875 -3.3828125 6.29296875 -6.125 6.1875 C-7.03507813 6.16042969 -7.94515625 6.13335938 -8.8828125 6.10546875 C-9.58148437 6.07066406 -10.28015625 6.03585937 -11 6 C-11 5.67 -11 5.34 -11 5 C-8.03 5 -5.06 5 -2 5 C-2 3.68 -2 2.36 -2 1 C-1.34 0.67 -0.68 0.34 0 0 Z " fill="#CBC7BC" transform="translate(711,538)"/>
<path d="M0 0 C1 3 1 3 0.22265625 4.82421875 C-0.8515625 6.54947917 -1.92578125 8.27473958 -3 10 C-3.75 8.375 -3.75 8.375 -4 6 C-2.0625 2.75 -2.0625 2.75 0 0 Z " fill="#EFEDEC" transform="translate(366,371)"/>
<path d="M0 0 C0.33 0.66 0.66 1.32 1 2 C0.34 2 -0.32 2 -1 2 C-1 2.66 -1 3.32 -1 4 C-3.25 5.6875 -3.25 5.6875 -6 7 C-7.32 6.67 -8.64 6.34 -10 6 C-6.7 4.02 -3.4 2.04 0 0 Z " fill="#BAB4AE" transform="translate(439,323)"/>
<path d="M0 0 C0.33 0 0.66 0 1 0 C1.185625 1.2065625 1.185625 1.2065625 1.375 2.4375 C1.58125 3.283125 1.7875 4.12875 2 5 C2.66 5.33 3.32 5.66 4 6 C4 6.99 4 7.98 4 9 C2.0625 8.375 2.0625 8.375 0 7 C-0.8125 3.9375 -0.8125 3.9375 -1 1 C-0.67 0.67 -0.34 0.34 0 0 Z " fill="#747571" transform="translate(372,792)"/>
<path d="M0 0 C2.64 0.33 5.28 0.66 8 1 C7.34 1.66 6.68 2.32 6 3 C6.33 3.66 6.66 4.32 7 5 C4.0625 4.1875 4.0625 4.1875 1 3 C0.67 2.01 0.34 1.02 0 0 Z " fill="#A4A598" transform="translate(410,640)"/>
<path d="M0 0 C0.66 0.66 1.32 1.32 2 2 C0.37660195 3.70884005 -1.29319053 5.37446717 -3 7 C-3.66 7 -4.32 7 -5 7 C-4.67 6.01 -4.34 5.02 -4 4 C-3.34 4 -2.68 4 -2 4 C-2 3.34 -2 2.68 -2 2 C-2.66 1.67 -3.32 1.34 -4 1 C-2.125 0.375 -2.125 0.375 0 0 Z " fill="#999388" transform="translate(652,616)"/>
<path d="M0 0 C0.33 0.99 0.66 1.98 1 3 C1.99 3.33 2.98 3.66 4 4 C2.68 4.99 1.36 5.98 0 7 C0 6.34 0 5.68 0 5 C-0.99 5 -1.98 5 -3 5 C-1.125 1.125 -1.125 1.125 0 0 Z " fill="#C6C5B4" transform="translate(735,595)"/>
<path d="M0 0 C1.65 0 3.3 0 5 0 C5 4 5 4 4 7 C0 2.25 0 2.25 0 0 Z " fill="#CCC3B2" transform="translate(347,592)"/>
<path d="M0 0 C3.96 0 7.92 0 12 0 C12 0.99 12 1.98 12 3 C6.06 2.01 6.06 2.01 0 1 C0 0.67 0 0.34 0 0 Z " fill="#D3D3CA" transform="translate(235,440)"/>
<path d="M0 0 C0.66 0 1.32 0 2 0 C3.38938077 1.96147874 4.7260411 3.96166576 6 6 C5.01 6.495 5.01 6.495 4 7 C2 5.75 2 5.75 0 4 C0 2.68 0 1.36 0 0 Z " fill="#2A2428" transform="translate(470,397)"/>
<path d="M0 0 C0.33 0 0.66 0 1 0 C0.67 2.64 0.34 5.28 0 8 C-1.32 8 -2.64 8 -4 8 C-4 7.34 -4 6.68 -4 6 C-3.34 6 -2.68 6 -2 6 C-1.34 4.02 -0.68 2.04 0 0 Z " fill="#4A443E" transform="translate(504,324)"/>
<path d="M0 0 C2.3125 1.3125 2.3125 1.3125 3.3125 4.3125 C0.0125 3.3225 -3.2875 2.3325 -6.6875 1.3125 C-2.6875 -0.6875 -2.6875 -0.6875 0 0 Z " fill="#B3B2A7" transform="translate(572.6875,229.6875)"/>
<path d="M0 0 C0.33 0.66 0.66 1.32 1 2 C0.34 2 -0.32 2 -1 2 C-0.67 3.65 -0.34 5.3 0 7 C-1.32 6.34 -2.64 5.68 -4 5 C-4 3.68 -4 2.36 -4 1 C-2.68 0.67 -1.36 0.34 0 0 Z " fill="#B6B4A4" transform="translate(5,181)"/>
<path d="M0 0 C3.3 0 6.6 0 10 0 C8.515 1.485 8.515 1.485 7 3 C3.3125 2.6875 3.3125 2.6875 0 2 C0 1.34 0 0.68 0 0 Z " fill="#D3CFBD" transform="translate(913,0)"/>
<path d="M0 0 C1.32 0.33 2.64 0.66 4 1 C3.67 1.99 3.34 2.98 3 4 C1.02 4 -0.96 4 -3 4 C-2.01 2.68 -1.02 1.36 0 0 Z " fill="#AFAD9E" transform="translate(4,929)"/>
<path d="M0 0 C0.66 0 1.32 0 2 0 C1.34 3.3 0.68 6.6 0 10 C-2 6 -2 6 -1.125 2.75 C-0.75375 1.8425 -0.3825 0.935 0 0 Z " fill="#271A17" transform="translate(542,613)"/>
<path d="M0 0 C0.66 0.33 1.32 0.66 2 1 C0.68 3.64 -0.64 6.28 -2 9 C-2.99 9 -3.98 9 -5 9 C-4.54625 8.2575 -4.0925 7.515 -3.625 6.75 C-2.31359204 4.53069422 -1.11719197 2.32032178 0 0 Z " fill="#FAF7E1" transform="translate(501,333)"/>
<path d="M0 0 C0.66 0.33 1.32 0.66 2 1 C1.67 1.99 1.34 2.98 1 4 C1.66 4.33 2.32 4.66 3 5 C1.68 5.99 0.36 6.98 -1 8 C-1.04241723 5.66705225 -1.04092937 3.33297433 -1 1 C-0.67 0.67 -0.34 0.34 0 0 Z " fill="#B9B8A5" transform="translate(2,49)"/>
<path d="M0 0 C0.66 0 1.32 0 2 0 C4 2 4 2 4 6 C2.68 6 1.36 6 0 6 C0 4.02 0 2.04 0 0 Z " fill="#B6B4A4" transform="translate(1,3)"/>
<path d="M0 0 C1.65 0 3.3 0 5 0 C4.67 0.99 4.34 1.98 4 3 C3.34 3 2.68 3 2 3 C1.67 4.32 1.34 5.64 1 7 C-0.0625 4.625 -0.0625 4.625 -1 2 C-0.67 1.34 -0.34 0.68 0 0 Z " fill="#C9C5B2" transform="translate(585,1)"/>
<path d="M0 0 C0.99 0.33 1.98 0.66 3 1 C2.74438677 3.3431213 2.40729228 5.67843403 2 8 C1.01 8.495 1.01 8.495 0 9 C0 6.03 0 3.06 0 0 Z " fill="#B3B1A2" transform="translate(1,914)"/>
<path d="M0 0 C0.66 0.66 1.32 1.32 2 2 C1.625 4.625 1.625 4.625 1 7 C0.01 7 -0.98 7 -2 7 C-1.67 5.35 -1.34 3.7 -1 2 C-1.66 1.67 -2.32 1.34 -3 1 C-2.01 0.67 -1.02 0.34 0 0 Z " fill="#C7C5B3" transform="translate(630,752)"/>
<path d="M0 0 C0.99 0.33 1.98 0.66 3 1 C1.68 3.31 0.36 5.62 -1 8 C-1.66 8 -2.32 8 -3 8 C-1.125 1.125 -1.125 1.125 0 0 Z " fill="#3F4A43" transform="translate(318,352)"/>
<path d="M0 0 C1.98 0 3.96 0 6 0 C3.63707344 2.52588702 2.33537489 3.88820837 -1 5 C-1.33 4.01 -1.66 3.02 -2 2 C-1.34 2 -0.68 2 0 2 C0 1.34 0 0.68 0 0 Z " fill="#C9C2BA" transform="translate(390,256)"/>
<path d="M0 0 C0.33 0 0.66 0 1 0 C1.6875 3.3125 1.6875 3.3125 2 7 C0.5625 8.9375 0.5625 8.9375 -1 10 C-1.66 9.67 -2.32 9.34 -3 9 C-2.34 8.01 -1.68 7.02 -1 6 C-0.60986284 4.0103005 -0.26797351 2.00980131 0 0 Z " fill="#B9B5AF" transform="translate(320,251)"/>
<path d="M0 0 C0.99 0.33 1.98 0.66 3 1 C1.02 3.97 1.02 3.97 -1 7 C-1.66 6.67 -2.32 6.34 -3 6 C-1.125 1.125 -1.125 1.125 0 0 Z " fill="#443838" transform="translate(708,246)"/>
<path d="M0 0 C1.32 0.33 2.64 0.66 4 1 C3.67 1.99 3.34 2.98 3 4 C1.35 3.67 -0.3 3.34 -2 3 C-1.34 2.01 -0.68 1.02 0 0 Z " fill="#CBC5B1" transform="translate(942,103)"/>
<path d="M0 0 C2.64 0 5.28 0 8 0 C7.34 1.32 6.68 2.64 6 4 C3.53199953 2.84826645 1.95216435 1.95216435 0 0 Z " fill="#CECAB5" transform="translate(846,1)"/>
<path d="M0 0 C-0.33 1.32 -0.66 2.64 -1 4 C-1.99 3.67 -2.98 3.34 -4 3 C-4 2.34 -4 1.68 -4 1 C-4.99 0.67 -5.98 0.34 -7 0 C-3.86650268 -1.04449911 -3.01031744 -0.93423645 0 0 Z " fill="#B8B8A6" transform="translate(17,2)"/>
<path d="M0 0 C0.99 0.66 1.98 1.32 3 2 C3 2.66 3 3.32 3 4 C1.35 4 -0.3 4 -2 4 C-2.33 3.01 -2.66 2.02 -3 1 C-2.01 0.67 -1.02 0.34 0 0 Z " fill="#B4B2A2" transform="translate(60,960)"/>
<path d="M0 0 C1.485 0.99 1.485 0.99 3 2 C2.625 3.9375 2.625 3.9375 2 6 C1.01 6.495 1.01 6.495 0 7 C-0.38133299 5.0085944 -0.71325582 3.00720923 -1 1 C-0.67 0.67 -0.34 0.34 0 0 Z " fill="#C4C4BB" transform="translate(654,788)"/>
<path d="M0 0 C0.99 0.33 1.98 0.66 3 1 C2.67 1.66 2.34 2.32 2 3 C-0.3140622 3.73075648 -2.64828869 4.40138258 -5 5 C-3.35 3.35 -1.7 1.7 0 0 Z " fill="#C5C2B8" transform="translate(646,643)"/>
<path d="M0 0 C0 0.66 0 1.32 0 2 C-2.2727675 3.49524178 -4.5679943 4.78399715 -7 6 C-6.6875 4.125 -6.6875 4.125 -6 2 C-3 0 -3 0 0 0 Z " fill="#C9C3BC" transform="translate(657,637)"/>
<path d="M0 0 C4.875 4.75 4.875 4.75 6 7 C3.83125748 6.49396008 2.00032373 6.00016187 0 5 C0 3.35 0 1.7 0 0 Z " fill="#BBB1AB" transform="translate(486,625)"/>
<path d="M0 0 C0.33 0 0.66 0 1 0 C0.25 6.75 0.25 6.75 -2 9 C-3 6 -3 6 -1.5625 2.8125 C-1.046875 1.884375 -0.53125 0.95625 0 0 Z " fill="#B5B2B0" transform="translate(722,551)"/>
<path d="M0 0 C1.125 1.75 1.125 1.75 2 4 C1.125 6.25 1.125 6.25 0 8 C-0.66 8 -1.32 8 -2 8 C-1.125 1.125 -1.125 1.125 0 0 Z " fill="#CAC5C1" transform="translate(730,534)"/>
<path d="M0 0 C0.66 0 1.32 0 2 0 C0.83857315 4.35535069 -0.07699505 6.64619703 -4 9 C-3.67 7.35 -3.34 5.7 -3 4 C-2.01 4 -1.02 4 0 4 C-0.33 3.01 -0.66 2.02 -1 1 C-0.67 0.67 -0.34 0.34 0 0 Z " fill="#C0BDB2" transform="translate(715,526)"/>
<path d="M0 0 C0.33 0.66 0.66 1.32 1 2 C-2.51187196 4.40814077 -4.72656908 5.36629408 -9 5 C-8.01 4.67 -7.02 4.34 -6 4 C-6 3.34 -6 2.68 -6 2 C-4.02 1.34 -2.04 0.68 0 0 Z " fill="#878368" transform="translate(506,394)"/>
<path d="M0 0 C3 2 3 2 3.51171875 3.9453125 C3.67447917 5.96354167 3.83723958 7.98177083 4 10 C2 9 2 9 0.875 6.6875 C0 4 0 4 0 0 Z " fill="#2A2123" transform="translate(728,374)"/>
<path d="M0 0 C0.33 0.66 0.66 1.32 1 2 C2.97888961 2.72693904 4.97954558 3.39816251 7 4 C7 4.66 7 5.32 7 6 C4.69 5.34 2.38 4.68 0 4 C0 2.68 0 1.36 0 0 Z " fill="#BAB6B3" transform="translate(605,241)"/>
<path d="M0 0 C0.66 0 1.32 0 2 0 C1.67 2.31 1.34 4.62 1 7 C0.34 6.67 -0.32 6.34 -1 6 C-1.042721 4.33388095 -1.04063832 2.66617115 -1 1 C-0.67 0.67 -0.34 0.34 0 0 Z " fill="#D0CDB7" transform="translate(1021,20)"/>
</svg>
